<svg width="174" height="60" viewBox="0 0 174 60" fill="none"
     xmlns="http://www.w3.org/2000/svg">
    <rect width="174" height="60" fill="currentColor"/>
    <path
        d="M112.526 28.2038V30.4948H111.09V31.9972H112.526V37.1022C112.526 38.8454 113.314 39.5427 115.298 39.5427C115.647 39.5427 115.979 39.5012 116.269 39.4513V37.9655C116.02 37.9904 115.863 38.007 115.589 38.007C114.7 38.007 114.31 37.592 114.31 36.6457V31.9972H116.269V30.4948H114.31V28.2038H112.526Z"
        fill="white"/>
    <path
        d="M121.323 39.6672C123.963 39.6672 125.581 37.8991 125.581 34.9689C125.581 32.0554 123.955 30.279 121.323 30.279C118.684 30.279 117.057 32.0554 117.057 34.9689C117.057 37.8991 118.675 39.6672 121.323 39.6672ZM121.323 38.0817C119.771 38.0817 118.899 36.9445 118.899 34.9689C118.899 33.0099 119.771 31.8644 121.323 31.8644C122.867 31.8644 123.747 33.0099 123.747 34.9689C123.747 36.9362 122.867 38.0817 121.323 38.0817Z"
        fill="white"/>
    <path
        d="M126.966 39.4929H128.751V34.1554C128.751 32.8854 129.706 32.0304 131.059 32.0304C131.374 32.0304 131.905 32.0886 132.055 32.1384V30.3786C131.864 30.3288 131.524 30.3039 131.258 30.3039C130.079 30.3039 129.075 30.9513 128.817 31.8395H128.685V30.4533H126.966V39.4929Z"
        fill="white"/>
    <path
        d="M136.486 31.798C137.806 31.798 138.669 32.7194 138.711 34.1388H134.145C134.245 32.7277 135.166 31.798 136.486 31.798ZM138.702 37.0524C138.37 37.758 137.632 38.1481 136.552 38.1481C135.125 38.1481 134.203 37.1437 134.145 35.5583V35.4587H140.529V34.8361C140.529 31.9972 139.009 30.279 136.494 30.279C133.946 30.279 132.327 32.1135 132.327 35.0021C132.327 37.8908 133.913 39.6672 136.503 39.6672C138.57 39.6672 140.014 38.6711 140.421 37.0524H138.702Z"
        fill="white"/>
    <path
        d="M100.822 36.1547C100.96 38.3744 102.81 39.794 105.563 39.794C108.505 39.794 110.346 38.3056 110.346 35.931C110.346 34.064 109.297 33.0316 106.75 32.438L105.382 32.1024C103.764 31.7239 103.111 31.2163 103.111 30.3301C103.111 29.2117 104.126 28.4804 105.649 28.4804C107.094 28.4804 108.092 29.1944 108.273 30.3387H110.148C110.036 28.2481 108.195 26.7769 105.674 26.7769C102.964 26.7769 101.158 28.2481 101.158 30.4592C101.158 32.2831 102.181 33.3671 104.427 33.892L106.027 34.2791C107.67 34.6663 108.393 35.2341 108.393 36.1805C108.393 37.2817 107.258 38.0819 105.709 38.0819C104.048 38.0819 102.896 37.3334 102.732 36.1547H100.822Z"
        fill="white"/>
    <path
        d="M82.3348 30.3039C81.1063 30.3039 80.0437 30.9181 79.4959 31.9474H79.3631V30.4533H77.6448V42.4977H79.4295V38.1232H79.5706C80.0437 39.0778 81.0647 39.6423 82.3514 39.6423C84.6341 39.6423 86.0867 37.841 86.0867 34.9689C86.0867 32.0969 84.6341 30.3039 82.3348 30.3039ZM81.8284 38.0402C80.3343 38.0402 79.3963 36.8615 79.3963 34.9772C79.3963 33.0846 80.3343 31.9059 81.8367 31.9059C83.3475 31.9059 84.2522 33.0597 84.2522 34.9689C84.2522 36.8864 83.3475 38.0402 81.8284 38.0402Z"
        fill="white"/>
    <path
        d="M92.3316 30.3039C91.103 30.3039 90.0405 30.9181 89.4927 31.9474H89.3599V30.4533H87.6416V42.4977H89.4263V38.1232H89.5674C90.0405 39.0778 91.0615 39.6423 92.3482 39.6423C94.6309 39.6423 96.0835 37.841 96.0835 34.9689C96.0835 32.0969 94.6309 30.3039 92.3316 30.3039ZM91.8252 38.0402C90.3311 38.0402 89.3931 36.8615 89.3931 34.9772C89.3931 33.0846 90.3311 31.9059 91.8335 31.9059C93.3443 31.9059 94.249 33.0597 94.249 34.9689C94.249 36.8864 93.3443 38.0402 91.8252 38.0402Z"
        fill="white"/>
    <path
        d="M74.4428 39.4929H76.4905L72.008 27.078H69.9346L65.4521 39.4929H67.431L68.5752 36.1977H73.3072L74.4428 39.4929ZM70.8724 29.3321H71.0186L72.8168 34.5802H69.0656L70.8724 29.3321Z"
        fill="white"/>
    <path
        d="M65.6514 17.7131V23.7021H67.8137C69.5984 23.7021 70.6318 22.6023 70.6318 20.689C70.6318 18.8047 69.5901 17.7131 67.8137 17.7131H65.6514ZM66.5811 18.5598H67.71C68.9509 18.5598 69.6855 19.3484 69.6855 20.7014C69.6855 22.0752 68.9634 22.8555 67.71 22.8555H66.5811V18.5598Z"
        fill="white"/>
    <path
        d="M73.7969 23.7893C75.1167 23.7893 75.9261 22.9053 75.9261 21.4402C75.9261 19.9834 75.1126 19.0952 73.7969 19.0952C72.4771 19.0952 71.6636 19.9834 71.6636 21.4402C71.6636 22.9053 72.4729 23.7893 73.7969 23.7893ZM73.7969 22.9966C73.0208 22.9966 72.585 22.428 72.585 21.4402C72.585 20.4607 73.0208 19.8879 73.7969 19.8879C74.5689 19.8879 75.0088 20.4607 75.0088 21.4402C75.0088 22.4238 74.5689 22.9966 73.7969 22.9966Z"
        fill="white"/>
    <path
        d="M82.8182 19.1824H81.9259L81.1207 22.6313H81.0501L80.1205 19.1824H79.2655L78.3358 22.6313H78.2694L77.4601 19.1824H76.5553L77.8004 23.7021H78.7176L79.6473 20.3735H79.7179L80.6517 23.7021H81.5772L82.8182 19.1824Z"
        fill="white"/>
    <path
        d="M83.8458 23.7021H84.7382V21.0583C84.7382 20.3528 85.1574 19.9128 85.8173 19.9128C86.4772 19.9128 86.7926 20.2739 86.7926 21.0002V23.7021H87.685V20.7761C87.685 19.7012 87.1288 19.0952 86.1203 19.0952C85.4396 19.0952 84.9914 19.3982 84.7714 19.9004H84.705V19.1824H83.8458V23.7021Z"
        fill="white"/>
    <path d="M89.0903 23.7021H89.9826V17.4185H89.0903V23.7021Z" fill="white"/>
    <path
        d="M93.3386 23.7893C94.6584 23.7893 95.4678 22.9053 95.4678 21.4402C95.4678 19.9834 94.6543 19.0952 93.3386 19.0952C92.0188 19.0952 91.2053 19.9834 91.2053 21.4402C91.2053 22.9053 92.0146 23.7893 93.3386 23.7893ZM93.3386 22.9966C92.5625 22.9966 92.1267 22.428 92.1267 21.4402C92.1267 20.4607 92.5625 19.8879 93.3386 19.8879C94.1106 19.8879 94.5505 20.4607 94.5505 21.4402C94.5505 22.4238 94.1106 22.9966 93.3386 22.9966Z"
        fill="white"/>
    <path
        d="M98.1265 23.0256C97.6409 23.0256 97.2881 22.7891 97.2881 22.3823C97.2881 21.9839 97.5704 21.7722 98.1929 21.7307L99.2969 21.6602V22.0378C99.2969 22.5981 98.7989 23.0256 98.1265 23.0256ZM97.8982 23.7769C98.4917 23.7769 98.9856 23.5195 99.2554 23.0671H99.326V23.7021H100.185V20.6143C100.185 19.6597 99.5459 19.0952 98.4129 19.0952C97.3877 19.0952 96.6573 19.5933 96.566 20.3694H97.4292C97.5289 20.0498 97.8733 19.8672 98.3714 19.8672C98.9815 19.8672 99.2969 20.137 99.2969 20.6143V21.0044L98.0726 21.075C96.9976 21.1414 96.3916 21.6104 96.3916 22.4238C96.3916 23.2498 97.0267 23.7769 97.8982 23.7769Z"
        fill="white"/>
    <path
        d="M103.213 23.7769C103.836 23.7769 104.363 23.4822 104.633 22.9883H104.703V23.7021H105.558V17.4185H104.666V19.9004H104.599C104.355 19.4023 103.832 19.1077 103.213 19.1077C102.072 19.1077 101.337 20.0125 101.337 21.4402C101.337 22.8721 102.064 23.7769 103.213 23.7769ZM103.466 19.9087C104.213 19.9087 104.682 20.5022 104.682 21.4443C104.682 22.3906 104.218 22.9758 103.466 22.9758C102.711 22.9758 102.259 22.3989 102.259 21.4402C102.259 20.4897 102.715 19.9087 103.466 19.9087Z"
        fill="white"/>
    <path
        d="M111.345 23.7893C112.665 23.7893 113.474 22.9053 113.474 21.4402C113.474 19.9834 112.66 19.0952 111.345 19.0952C110.025 19.0952 109.211 19.9834 109.211 21.4402C109.211 22.9053 110.021 23.7893 111.345 23.7893ZM111.345 22.9966C110.569 22.9966 110.133 22.428 110.133 21.4402C110.133 20.4607 110.569 19.8879 111.345 19.8879C112.117 19.8879 112.557 20.4607 112.557 21.4402C112.557 22.4238 112.117 22.9966 111.345 22.9966Z"
        fill="white"/>
    <path
        d="M114.655 23.7021H115.547V21.0583C115.547 20.3528 115.967 19.9128 116.626 19.9128C117.286 19.9128 117.602 20.2739 117.602 21.0002V23.7021H118.494V20.7761C118.494 19.7012 117.938 19.0952 116.929 19.0952C116.249 19.0952 115.801 19.3982 115.581 19.9004H115.514V19.1824H114.655V23.7021Z"
        fill="white"/>
    <path
        d="M122.604 18.0576V19.2031H121.886V19.9543H122.604V22.5068C122.604 23.3784 122.998 23.7271 123.99 23.7271C124.164 23.7271 124.33 23.7063 124.476 23.6814V22.9385C124.351 22.9509 124.272 22.9592 124.135 22.9592C123.691 22.9592 123.496 22.7517 123.496 22.2786V19.9543H124.476V19.2031H123.496V18.0576H122.604Z"
        fill="white"/>
    <path
        d="M125.673 23.7021H126.566V21.0625C126.566 20.3777 126.973 19.917 127.703 19.917C128.334 19.917 128.67 20.2822 128.67 21.0044V23.7021H129.562V20.7844C129.562 19.7095 128.969 19.0994 128.006 19.0994C127.325 19.0994 126.848 19.4023 126.628 19.9087H126.558V17.4185H125.673V23.7021Z"
        fill="white"/>
    <path
        d="M132.781 19.8547C133.441 19.8547 133.873 20.3154 133.894 21.0251H131.611C131.661 20.3196 132.122 19.8547 132.781 19.8547ZM133.89 22.4819C133.724 22.8347 133.354 23.0298 132.815 23.0298C132.101 23.0298 131.64 22.5276 131.611 21.7349V21.6851H134.803V21.3738C134.803 19.9543 134.043 19.0952 132.786 19.0952C131.511 19.0952 130.702 20.0125 130.702 21.4568C130.702 22.9011 131.495 23.7893 132.79 23.7893C133.823 23.7893 134.545 23.2913 134.749 22.4819H133.89Z"
        fill="white"/>
    <path
        d="M52.3466 28.1024C52.3735 26.015 53.4946 24.0398 55.273 22.9465C54.151 21.3442 52.2719 20.3283 50.3168 20.2671C48.2316 20.0482 46.21 21.5149 45.1474 21.5149C44.0643 21.5149 42.4282 20.2888 40.6665 20.3251C38.3701 20.3993 36.2293 21.7049 35.1121 23.7125C32.7105 27.8705 34.5019 33.9813 36.8024 37.3423C37.9534 38.9881 39.2986 40.8265 41.0588 40.7613C42.7812 40.6899 43.4245 39.663 45.5036 39.663C47.5634 39.663 48.1669 40.7613 49.9628 40.7199C51.811 40.6899 52.9755 39.0668 54.0861 37.4054C54.9131 36.2327 55.5495 34.9366 55.9717 33.5652C53.7997 32.6465 52.3492 30.4607 52.3466 28.1024Z"
        fill="white"/>
    <path
        d="M48.9545 18.0567C49.9623 16.847 50.4587 15.2921 50.3385 13.7222C48.7989 13.8839 47.3768 14.6197 46.3554 15.783C45.3567 16.9197 44.8369 18.4472 44.9352 19.9571C46.4753 19.973 47.9894 19.2571 48.9545 18.0567Z"
        fill="white"/>
</svg>
