<svg width="174" height="60" viewBox="0 0 174 60" fill="none"
     xmlns="http://www.w3.org/2000/svg">
    <rect width="174" height="60" fill="currentColor"/>
    <path
        d="M128.81 40.9307H130.645V28.4503H128.81V40.9307ZM145.34 32.9463L143.236 38.357H143.173L140.99 32.9463H139.013L142.288 40.5085L140.42 44.7153H142.334L147.381 32.9463H145.34ZM134.931 39.5132C134.331 39.5132 133.492 39.2079 133.492 38.4533C133.492 37.4901 134.537 37.1208 135.438 37.1208C136.244 37.1208 136.625 37.2971 137.115 37.5381C136.972 38.6943 135.992 39.5132 134.931 39.5132ZM135.154 32.6733C133.825 32.6733 132.449 33.2676 131.879 34.5841L133.508 35.2743C133.856 34.5841 134.504 34.3595 135.185 34.3595C136.134 34.3595 137.099 34.937 137.115 35.965V36.0933C136.782 35.9006 136.07 35.6117 135.201 35.6117C133.444 35.6117 131.657 36.5908 131.657 38.4213C131.657 40.0912 133.097 41.1671 134.71 41.1671C135.943 41.1671 136.625 40.6051 137.051 39.9465H137.115V40.9105H138.887V36.1252C138.887 33.9095 137.256 32.6733 135.154 32.6733ZM123.811 34.4655H121.201V30.1877H123.811C125.183 30.1877 125.962 31.3404 125.962 32.3266C125.962 33.2937 125.183 34.4655 123.811 34.4655ZM123.764 28.4503H119.367V40.9307H121.201V36.2025H123.764C125.798 36.2025 127.798 34.7081 127.798 32.3266C127.798 29.9455 125.798 28.4503 123.764 28.4503ZM99.7842 39.5155C98.5163 39.5155 97.4552 38.4377 97.4552 36.9586C97.4552 35.4623 98.5163 34.3692 99.7842 34.3692C101.036 34.3692 102.018 35.4623 102.018 36.9586C102.018 38.4377 101.036 39.5155 99.7842 39.5155ZM101.892 33.6451H101.828C101.416 33.1467 100.624 32.6963 99.626 32.6963C97.534 32.6963 95.6169 34.5623 95.6169 36.9586C95.6169 39.3385 97.534 41.1881 99.626 41.1881C100.624 41.1881 101.416 40.7377 101.828 40.2233H101.892V40.834C101.892 42.459 101.036 43.3271 99.6574 43.3271C98.5329 43.3271 97.8356 42.507 97.5501 41.8156L95.95 42.491C96.4091 43.6164 97.6289 45 99.6574 45C101.813 45 103.635 43.7131 103.635 40.5766V32.9537H101.892V33.6451ZM104.903 40.9307H106.74V28.4503H104.903V40.9307ZM109.45 36.8135C109.403 35.1729 110.702 34.3368 111.637 34.3368C112.366 34.3368 112.983 34.7069 113.19 35.2373L109.45 36.8135ZM115.154 35.3979C114.806 34.4495 113.744 32.6963 111.573 32.6963C109.418 32.6963 107.628 34.4172 107.628 36.9422C107.628 39.3226 109.403 41.1881 111.779 41.1881C113.696 41.1881 114.806 39.9983 115.265 39.3065L113.839 38.3413C113.364 39.0491 112.714 39.5155 111.779 39.5155C110.844 39.5155 110.179 39.0812 109.751 38.2287L115.344 35.8807L115.154 35.3979ZM70.5921 33.9991V35.8004H74.8385C74.7117 36.8135 74.379 37.5533 73.8719 38.068C73.2537 38.695 72.2871 39.3869 70.5921 39.3869C67.9775 39.3869 65.9336 37.2479 65.9336 34.5942C65.9336 31.9405 67.9775 29.8012 70.5921 29.8012C72.0024 29.8012 73.032 30.3643 73.7927 31.0881L75.0448 29.8172C73.9829 28.7881 72.5729 28 70.5921 28C67.0105 28 64 30.9594 64 34.5942C64 38.2287 67.0105 41.1881 70.5921 41.1881C72.5249 41.1881 73.9829 40.5447 75.1236 39.3385C76.2962 38.1484 76.6608 36.4758 76.6608 35.1246C76.6608 34.7069 76.6288 34.3209 76.5655 33.9991H70.5921ZM81.4886 39.5155C80.2207 39.5155 79.1273 38.454 79.1273 36.9422C79.1273 35.4143 80.2207 34.3692 81.4886 34.3692C82.756 34.3692 83.8494 35.4143 83.8494 36.9422C83.8494 38.454 82.756 39.5155 81.4886 39.5155ZM81.4886 32.6963C79.1745 32.6963 77.2893 34.4815 77.2893 36.9422C77.2893 39.3869 79.1745 41.1881 81.4886 41.1881C83.8018 41.1881 85.6874 39.3869 85.6874 36.9422C85.6874 34.4815 83.8018 32.6963 81.4886 32.6963ZM90.6481 39.5155C89.3811 39.5155 88.2873 38.454 88.2873 36.9422C88.2873 35.4143 89.3811 34.3692 90.6481 34.3692C91.9159 34.3692 93.0089 35.4143 93.0089 36.9422C93.0089 38.454 91.9159 39.5155 90.6481 39.5155ZM90.6481 32.6963C88.3349 32.6963 86.4496 34.4815 86.4496 36.9422C86.4496 39.3869 88.3349 41.1881 90.6481 41.1881C92.9621 41.1881 94.8474 39.3869 94.8474 36.9422C94.8474 34.4815 92.9621 32.6963 90.6481 32.6963Z"
        fill="white"/>
    <path
        d="M67.3982 23.2861C66.4539 23.2861 65.6418 22.9527 64.9869 22.2956C64.3318 21.6381 64 20.8149 64 19.8576C64 18.9003 64.332 18.0785 64.9869 17.4195C65.6418 16.7623 66.4539 16.429 67.3982 16.429C67.8792 16.429 68.3282 16.5124 68.7572 16.686C69.1864 16.8597 69.5376 17.1007 69.8141 17.4162L69.8793 17.4907L69.1427 18.2298L69.0691 18.139C68.8857 17.9128 68.6525 17.7371 68.3569 17.6094C68.0625 17.482 67.74 17.4232 67.3982 17.4232C66.7331 17.4232 66.1813 17.6499 65.7205 18.1107C65.2701 18.5808 65.0433 19.1533 65.0433 19.8576C65.0433 20.5624 65.27 21.1348 65.7209 21.6051C66.1817 22.0657 66.7335 22.2936 67.3982 22.2936C68.007 22.2936 68.5105 22.123 68.9063 21.7853C69.2749 21.471 69.4962 21.0463 69.5745 20.505H67.2928V19.5306H70.5606L70.5746 19.6198C70.6013 19.791 70.6202 19.9564 70.6202 20.1152C70.6202 21.0244 70.344 21.7666 69.8022 22.3126C69.1905 22.9633 68.386 23.2861 67.3982 23.2861ZM95.7728 23.2861C94.8272 23.2861 94.0245 22.9525 93.3781 22.2956C92.7308 21.6458 92.4092 20.8219 92.4092 19.8576C92.4092 18.8932 92.7304 18.0697 93.3776 17.4199C94.0241 16.7629 94.8272 16.429 95.7728 16.429C96.7166 16.429 97.5196 16.7626 98.1659 17.4294C98.8134 18.0791 99.1348 18.901 99.1348 19.8575C99.1348 20.8219 98.8136 21.6454 98.1663 22.2952C97.5196 22.9526 96.7089 23.2861 95.7728 23.2861ZM71.5554 23.1441V16.571H71.6607H75.4669V17.5653H72.5806V19.3704H75.1839V20.3448H72.5806V22.1515H75.4669V23.1441H71.5554ZM77.8609 23.1441V17.5653H76.0902V16.571H80.6568V17.5653H80.5514H78.8861V23.1441H77.8609ZM83.5752 23.1441V16.571H84.6004V16.6767V23.1441H83.5752ZM87.1811 23.1441V17.5653H85.4105V16.571H89.977V17.5653H89.8717H88.2064V23.1441H87.1811ZM100.045 23.1441V16.571H101.201L104.143 21.2981L104.118 20.4007V16.571H105.143V23.1441H104.128L101.045 18.1782L101.07 19.075V19.0764V23.1441H100.045ZM95.7728 22.2936C96.4379 22.2936 96.9808 22.0659 97.4234 21.6059L97.424 21.6051C97.8729 21.1545 98.0931 20.5738 98.0931 19.8575C98.0931 19.143 97.8734 18.561 97.4246 18.1106L97.4234 18.1094C96.9809 17.6494 96.438 17.4232 95.7728 17.4232C95.1065 17.4232 94.5637 17.6491 94.1128 18.109C93.6723 18.5703 93.4525 19.1432 93.4525 19.8575C93.4525 20.5735 93.6718 21.1442 94.1124 21.6056C94.5633 22.0656 95.1066 22.2936 95.7728 22.2936Z"
        fill="white"/>
    <path
        d="M42.7445 29.5629L32.098 40.8629C32.0984 40.8652 32.0992 40.8672 32.0996 40.8695C32.4261 42.0965 33.5468 43 34.8769 43C35.4086 43 35.9078 42.8563 36.3359 42.6039L36.3699 42.584L48.3539 35.6688L42.7445 29.5629Z"
        fill="#EA4335"/>
    <path
        d="M53.5156 27.6391L53.5054 27.6321L48.3316 24.6328L42.5027 29.8196L48.3519 35.668L53.4984 32.6985C54.4007 32.2114 55.0132 31.2602 55.0132 30.1633C55.0132 29.0743 54.4089 28.1278 53.5156 27.6391Z"
        fill="#FBBC04"/>
    <path
        d="M32.0976 19.4164C32.0336 19.6524 32 19.8996 32 20.1563V40.1239C32 40.3801 32.0332 40.6281 32.098 40.8633L43.1109 29.8524L32.0976 19.4164Z"
        fill="#4285F4"/>
    <path
        d="M42.8231 30.1396L48.3337 24.6306L36.3633 17.6904C35.9282 17.4298 35.4204 17.2794 34.877 17.2794C33.5469 17.2794 32.4247 18.1845 32.0981 19.413C32.0977 19.4142 32.0977 19.415 32.0977 19.4162L42.8231 30.1396Z"
        fill="#34A853"/>
</svg>
