<svg width="16" height="16" viewBox="0 0 16 16" fill="none" xmlns="http://www.w3.org/2000/svg">
    <path d="M8.00136 2.27707e-05C7.61572 2.27707e-05 7.23007 0.208893 7.03164 0.62914L5.14501 4.62023L0.926094 5.26021C0.040385 5.39472 -0.314059 6.53181 0.32762 7.18432L3.38 10.2915L2.65991 14.6786C2.53989 15.408 3.09516 16.0003 3.72484 15.9995C3.89126 15.9995 4.06248 15.9585 4.2289 15.8675L8.00056 13.7972L11.773 15.8675C12.5651 16.3028 13.4916 15.6001 13.3412 14.6786L12.6195 10.2915L15.6727 7.18432C16.3128 6.53181 15.9599 5.39472 15.0742 5.26021L10.8553 4.62023L8.96868 0.62914C8.88071 0.439487 8.74308 0.279738 8.57174 0.168396C8.4004 0.057055 8.20237 -0.00132353 8.00056 2.27707e-05H8.00136ZM8.00136 12.5272V1.41366L9.80719 5.23431C9.88471 5.39817 9.9992 5.5399 10.1408 5.64731C10.2824 5.75472 10.4469 5.82458 10.6201 5.8509L14.6606 6.46414L11.737 9.44012C11.6116 9.56779 11.5179 9.72538 11.4638 9.89931C11.4097 10.0732 11.3969 10.2583 11.4266 10.4385L12.1163 14.641L8.50303 12.6567C8.34831 12.5718 8.17616 12.5273 8.00136 12.5272Z" fill="#FEB74C"/>
</svg>
