<svg width="180" height="24" viewBox="0 0 180 24" fill="none" xmlns="http://www.w3.org/2000/svg">
<g clip-path="url(#clip0_214_9538)">
<path d="M32.5295 0.375H3.36611C1.71417 0.375 0.375 1.71815 0.375 3.375V20.625C0.375 22.2819 1.71417 23.625 3.36611 23.625H32.5295C34.1814 23.625 35.5206 22.2819 35.5206 20.625V3.375C35.5206 1.71815 34.1814 0.375 32.5295 0.375Z" fill="white" stroke="black" stroke-opacity="0.2" stroke-width="0.5"/>
<path d="M4.17366 8.87166C3.39127 8.44126 2.49834 8.09511 1.5 7.85489L1.54188 7.66782H5.63518C6.19001 7.68733 6.64022 7.85476 6.78671 8.44607L7.6763 12.6999L7.94882 13.9811L10.4404 7.66782H13.1306L9.13165 16.9163H6.44127L4.17366 8.87166ZM15.1095 16.9261H12.5654L14.1567 7.66782H16.7007L15.1095 16.9261ZM24.3323 7.89416L23.9863 9.89338L23.7562 9.79507C23.2959 9.60787 22.6882 9.4208 21.8611 9.44057C20.8566 9.44057 20.4061 9.84416 20.3957 10.2382C20.3957 10.6716 20.9406 10.9573 21.8305 11.3809C23.2963 12.0408 23.9762 12.8483 23.966 13.9023C23.9454 15.823 22.2075 17.0641 19.538 17.0641C18.3966 17.0541 17.2973 16.8271 16.7006 16.5714L17.0566 14.4931L17.3916 14.641C18.2187 14.9861 18.7629 15.1335 19.7787 15.1335C20.5112 15.1335 21.2965 14.8476 21.3065 14.2273C21.3065 13.8235 20.9719 13.5278 19.9876 13.0747C19.0246 12.6313 17.737 11.8927 17.7579 10.563C17.7687 8.76064 19.538 7.5 22.0504 7.5C23.0346 7.5 23.8305 7.70683 24.3323 7.89416ZM27.7138 13.6462H29.8284C29.7238 13.1833 29.242 10.9672 29.242 10.9672L29.0642 10.1695C28.9386 10.5141 28.7189 11.0756 28.7295 11.0558C28.7295 11.0558 27.9233 13.1144 27.7138 13.6462ZM30.8542 7.66782L32.9067 16.926H30.551C30.551 16.926 30.3205 15.8622 30.2475 15.5372H26.981C26.8865 15.7833 26.447 16.926 26.447 16.926H23.7775L27.5565 8.43599C27.8184 7.83512 28.2794 7.66782 28.8863 7.66782H30.8542Z" fill="#171E6C"/>
</g>
<g clip-path="url(#clip1_214_9538)">
<path d="M80.7929 0H50.8817C49.2298 0 47.8906 1.34315 47.8906 3V21C47.8906 22.6569 49.2298 24 50.8817 24H80.7929C82.4448 24 83.784 22.6569 83.784 21V3C83.784 1.34315 82.4448 0 80.7929 0Z" fill="#252525"/>
<path d="M61.3528 19.5C65.4827 19.5 68.8306 16.1421 68.8306 12C68.8306 7.85786 65.4827 4.5 61.3528 4.5C57.2229 4.5 53.875 7.85786 53.875 12C53.875 16.1421 57.2229 19.5 61.3528 19.5Z" fill="#EB001B"/>
<path d="M70.3215 19.5C74.4514 19.5 77.7993 16.1421 77.7993 12C77.7993 7.85786 74.4514 4.5 70.3215 4.5C66.1917 4.5 62.8438 7.85786 62.8438 12C62.8438 16.1421 66.1917 19.5 70.3215 19.5Z" fill="#F79E1B"/>
<path fill-rule="evenodd" clip-rule="evenodd" d="M65.8349 5.99951C67.6511 7.36782 68.826 9.54633 68.826 12.0001C68.826 14.4538 67.6511 16.6323 65.8349 18.0006C64.0186 16.6323 62.8438 14.4538 62.8438 12.0001C62.8438 9.54633 64.0186 7.36782 65.8349 5.99951Z" fill="#FF5F00"/>
</g>
<g clip-path="url(#clip2_214_9538)">
<path d="M128.691 0H98.7802C97.1282 0 95.7891 1.34315 95.7891 3V21C95.7891 22.6569 97.1282 24 98.7802 24H128.691C130.343 24 131.682 22.6569 131.682 21V3C131.682 1.34315 130.343 0 128.691 0Z" fill="#016FD0"/>
<path fill-rule="evenodd" clip-rule="evenodd" d="M116.375 20.0907V11.5386L131.551 11.5522V13.9146L129.797 15.7947L131.551 17.692V20.1045H128.751L127.262 18.4572L125.784 20.1107L116.375 20.0907Z" fill="#FFFFFE"/>
<path fill-rule="evenodd" clip-rule="evenodd" d="M117.391 19.1533V12.48H123.032V14.0173H119.217V15.0608H122.941V16.5726H119.217V17.5975H123.032V19.1533H117.391Z" fill="#016FD0"/>
<path fill-rule="evenodd" clip-rule="evenodd" d="M123 19.1532L126.122 15.8127L123 12.48H125.416L127.324 14.595L129.237 12.48H131.549V12.5325L128.494 15.8127L131.549 19.0585V19.1532H129.214L127.272 17.0169L125.351 19.1532H123Z" fill="#016FD0"/>
<path fill-rule="evenodd" clip-rule="evenodd" d="M117.085 3.948H120.744L122.028 6.87427V3.948H126.545L127.324 6.14035L128.105 3.948H131.554V12.5001H113.328L117.085 3.948Z" fill="#FFFFFE"/>
<path fill-rule="evenodd" clip-rule="evenodd" d="M117.773 4.87695L114.82 11.5447H116.845L117.402 10.2095H120.42L120.977 11.5447H123.052L120.112 4.87695H117.773ZM118.026 8.71311L118.912 6.5905L119.796 8.71311H118.026Z" fill="#016FD0"/>
<path fill-rule="evenodd" clip-rule="evenodd" d="M123.023 11.5436V4.87598L125.87 4.88579L127.334 8.98488L128.808 4.87598H131.548V11.5436L129.785 11.5592V6.97923L128.121 11.5436H126.512L124.814 6.96358V11.5436H123.023Z" fill="#016FD0"/>
</g>
<g clip-path="url(#clip3_214_9538)">
<path d="M176.587 23.6249L176.59 23.6249C178.018 23.6372 179.19 22.4659 179.208 21.0062L179.208 3.00945C179.202 2.30353 178.922 1.62926 178.43 1.1352C177.939 0.642403 177.277 0.369223 176.587 0.375106L146.681 0.375093C145.993 0.369223 145.332 0.642403 144.841 1.1352C144.348 1.62926 144.068 2.30353 144.063 3.0064L144.062 20.9905C144.068 21.6965 144.348 22.3707 144.841 22.8648C145.332 23.3576 145.993 23.6308 146.684 23.6249H176.587ZM176.585 24.3749C176.585 24.3749 176.584 24.3749 176.584 24.3749L176.587 24.3749H176.585Z" fill="white" stroke="black" stroke-opacity="0.2" stroke-width="0.5"/>
<path d="M162.547 24H176.582C177.37 24.0066 178.128 23.699 178.69 23.1449C179.252 22.5909 179.571 21.8357 179.578 21.0455V17.5076C174.278 20.559 168.53 22.7503 162.547 24Z" fill="#F27712"/>
<path d="M178.34 13.9447H177.065L175.629 12.0453H175.493V13.9447H174.453V9.22741H175.988C177.189 9.22741 177.882 9.72396 177.882 10.6178C177.882 11.3502 177.449 11.8219 176.669 11.9709L178.34 13.9447ZM176.805 10.655C176.805 10.1957 176.459 9.95982 175.815 9.95982H175.493V11.3874H175.79C176.459 11.3874 176.805 11.1391 176.805 10.655ZM170.815 9.22741H173.76V10.0219H171.854V11.0771H173.686V11.884H171.854V13.1626H173.76V13.9571H170.815V9.22741ZM167.473 14.0688L165.22 9.215H166.359L167.782 12.3929L169.218 9.215H170.332L168.055 14.0688H167.498H167.473ZM158.054 14.0564C156.47 14.0564 155.232 12.9764 155.232 11.5736C155.232 10.2081 156.494 9.10327 158.079 9.10327C158.524 9.10327 158.896 9.19017 159.353 9.38879V10.4812C159.007 10.1395 158.54 9.94781 158.054 9.94741C157.064 9.94741 156.309 10.6674 156.309 11.5736C156.309 12.5295 157.051 13.2122 158.103 13.2122C158.574 13.2122 158.933 13.0633 159.353 12.6909V13.7833C158.883 13.9819 158.487 14.0564 158.054 14.0564ZM154.91 12.5047C154.91 13.4233 154.155 14.0564 153.066 14.0564C152.274 14.0564 151.704 13.7833 151.222 13.1626L151.903 12.5791C152.138 13.0012 152.534 13.2122 153.029 13.2122C153.499 13.2122 153.833 12.9267 153.833 12.5543C153.833 12.3433 153.734 12.1819 153.524 12.0578C153.293 11.9455 153.053 11.8541 152.806 11.7847C151.828 11.4743 151.494 11.1391 151.494 10.4812C151.494 9.71155 152.212 9.1281 153.153 9.1281C153.747 9.1281 154.279 9.31431 154.724 9.66189L154.18 10.2826C153.964 10.0453 153.659 9.91007 153.338 9.91017C152.893 9.91017 152.571 10.1336 152.571 10.4315C152.571 10.6798 152.757 10.8164 153.375 11.0274C154.564 11.3998 154.91 11.7474 154.91 12.5171V12.5047ZM149.798 9.22741H150.838V13.9571H149.798V9.22741ZM146.457 13.9571H144.922V9.22741H146.457C148.14 9.22741 149.303 10.1957 149.303 11.586C149.303 12.2936 148.957 12.964 148.35 13.4109C147.83 13.7833 147.249 13.9571 146.444 13.9571H146.457ZM147.67 10.4067C147.323 10.1336 146.927 10.0343 146.246 10.0343H145.962V13.1626H146.246C146.915 13.1626 147.335 13.0384 147.67 12.7902C148.029 12.4922 148.239 12.0453 148.239 11.586C148.239 11.1267 148.029 10.6922 147.67 10.4067Z" fill="black"/>
<path d="M162.257 9.10327C160.895 9.10327 159.781 10.1957 159.781 11.5488C159.781 12.9888 160.846 14.0688 162.257 14.0688C163.643 14.0688 164.732 12.9764 164.732 11.586C164.732 10.1957 163.655 9.10327 162.257 9.10327Z" fill="#F27712"/>
</g>
<defs>
<clipPath id="clip0_214_9538">
<rect width="35.8934" height="24" fill="white"/>
</clipPath>
<clipPath id="clip1_214_9538">
<rect width="35.8934" height="24" fill="white" transform="translate(47.8906)"/>
</clipPath>
<clipPath id="clip2_214_9538">
<rect width="35.8934" height="24" fill="white" transform="translate(95.7891)"/>
</clipPath>
<clipPath id="clip3_214_9538">
<rect width="35.8934" height="24" fill="white" transform="translate(143.688)"/>
</clipPath>
</defs>
</svg>
