<svg width="1919" height="205" viewBox="0 0 1919 205" fill="none" xmlns="http://www.w3.org/2000/svg">
<path d="M1918.26 42.1993V205H990.76H928.24H0L5.88425 53.2491V52.5125C5.14872 52.5125 4.41319 52.5125 3.67765 52.5125C3.67765 52.5125 3.67765 53.2491 2.94212 53.2491C2.94212 52.5125 3.67765 52.5125 4.41319 52.5125C4.41319 52.5125 3.67765 52.5125 3.67765 51.7758C2.94212 51.7758 3.67765 51.0392 2.94212 51.0392C3.67765 50.3025 3.67765 49.5658 4.41319 49.5658H5.14872C5.14872 48.0925 4.41319 46.6192 5.88425 45.8826C6.61978 45.1459 6.61978 45.1459 5.88425 44.4093C5.14872 43.6726 5.88425 42.936 6.61978 42.936C6.61978 42.936 6.61978 42.936 6.61978 42.1993C6.61978 41.4626 6.61978 40.726 6.61978 39.9893C6.61978 39.2527 5.88425 39.2527 5.88425 38.516C5.88425 35.5694 7.35531 34.8328 6.61978 33.3594C6.61978 33.3594 6.61978 33.3594 6.61978 32.6228V31.8861C6.61978 30.4128 7.35531 28.9395 7.35531 28.2029C7.35531 27.4662 6.61978 26.7296 8.09084 25.9929C9.5619 24.5196 9.5619 23.7829 9.5619 22.3096C9.5619 21.573 9.5619 20.8363 10.2974 20.8363C11.033 20.8363 11.033 20.8363 11.7685 20.8363C12.504 21.573 11.7685 22.3096 12.504 23.0463C13.9751 23.0463 14.7106 22.3096 15.4461 22.3096C16.1817 21.573 16.1817 21.573 16.9172 21.573C16.9172 22.3096 16.9172 23.0463 18.3883 23.0463C19.1238 22.3096 19.1238 20.8363 19.8593 20.0997C20.5949 21.573 21.3304 22.3096 21.3304 23.0463C21.3304 25.9929 21.3304 28.9395 21.3304 31.8861C21.3304 34.8328 19.8593 38.516 20.5949 41.4626H19.8593H20.5949C20.5949 42.1993 20.5949 43.6726 20.5949 44.4093C22.0659 40.726 23.537 37.7794 23.537 34.0961C25.008 32.6228 22.8015 30.4128 25.7436 28.9395C25.7436 28.9395 25.7436 28.2029 25.008 28.2029C23.537 28.2029 23.537 27.4662 23.537 27.4662C22.8015 24.5196 25.008 22.3096 25.008 20.0997C25.008 19.363 25.7436 19.363 26.4791 19.363C26.4791 20.8363 24.2725 23.0463 27.2146 24.5196V25.2562C25.008 26.7296 27.2146 27.4662 27.2146 28.9395C27.2146 29.6762 27.2146 31.1495 27.9502 31.8861C28.6857 31.8861 28.6857 31.8861 29.4212 31.8861C30.8923 29.6762 29.4212 28.2029 30.8923 27.4662C30.1568 24.5196 30.8923 22.3096 32.3634 20.0997C32.3634 19.363 33.0989 18.6263 33.0989 17.8897C33.8344 16.4164 34.57 17.8897 35.3055 17.8897C35.3055 17.153 35.3055 17.153 36.041 17.153C37.5121 15.6797 38.2476 14.2064 38.9831 12.7331C39.7187 11.9965 40.4542 12.7331 41.1897 11.9964L42.6608 11.2598C43.3963 12.7331 45.6029 11.9964 46.3384 11.9964C46.3384 11.9964 46.3384 11.9965 46.3384 12.7331C47.074 12.7331 47.8095 12.7331 47.8095 13.4698C48.545 13.4698 49.2806 13.4698 50.0161 13.4698C51.4872 12.7331 52.2227 14.2064 53.6938 14.2064C55.1648 13.4698 56.6359 13.4698 58.1069 13.4698C58.8425 13.4698 58.8425 13.4698 59.578 14.2064C60.3135 14.2064 61.0491 14.2064 61.7846 14.2064C62.5201 14.2064 63.9912 13.4698 63.9912 14.2064C64.7267 14.2064 64.7267 14.2064 65.4622 13.4698C66.1978 13.4698 66.9333 13.4698 66.9333 13.4698C67.6688 13.4698 67.6688 13.4698 68.4044 13.4698C69.1399 13.4698 69.1399 13.4698 69.8754 13.4698C71.3465 13.4698 72.082 12.7331 73.5531 12.7331C74.2886 13.4698 73.5531 14.2064 74.2886 14.9431C76.4952 15.6797 76.4952 15.6797 78.7018 14.9431C79.4373 14.9431 80.1729 14.9431 81.6439 14.9431C82.3795 14.2064 83.115 14.9431 83.8505 14.9431C84.586 14.9431 85.3216 14.9431 84.586 15.6797C84.586 16.4164 85.3216 15.6797 85.3216 15.6797C88.2637 14.2064 91.2058 14.9431 94.148 16.4164H94.8835C94.8835 16.4164 94.8835 16.4164 95.619 16.4164V17.153V17.8897V18.6264C97.8256 17.8897 100.032 17.8897 102.239 19.363C102.974 19.363 102.974 19.363 103.71 19.363H104.445L103.71 18.6264C103.71 17.153 103.71 17.153 105.916 17.153H106.652C106.652 17.153 106.652 17.153 106.652 16.4164C106.652 15.6797 106.652 14.9431 107.388 14.9431C109.594 14.9431 111.065 14.2064 113.272 14.2064C114.007 13.4698 115.478 14.2064 115.478 12.7331C114.743 11.2598 115.478 10.5231 117.685 11.2598H118.42C119.156 11.2598 119.892 10.5231 120.627 10.5231C121.363 10.5231 121.363 10.5231 122.098 10.5231C122.834 10.5231 122.834 9.78649 123.569 9.78649H124.305C125.04 9.04983 126.511 9.78649 127.247 9.04983C127.982 8.31318 127.982 9.04983 128.718 9.04983C130.924 9.78649 133.131 11.2598 134.602 11.9964C135.338 11.9964 136.073 11.9965 136.073 12.7331C139.751 14.9431 143.429 17.153 147.106 19.363C147.106 19.363 147.106 19.363 147.106 20.0997C147.106 20.0997 147.842 20.0997 147.842 20.8363C150.048 21.573 151.519 22.3096 153.726 23.0463C155.197 23.0463 155.933 23.7829 157.404 23.7829C157.404 23.7829 157.404 23.7829 158.139 23.7829C159.61 23.0463 160.346 23.0463 160.346 21.573C161.817 22.3096 163.288 23.7829 164.759 24.5196C165.494 24.5196 166.966 25.2562 166.966 24.5196C166.966 23.0463 167.701 23.7829 168.437 24.5196C169.172 25.2562 169.172 25.9929 170.643 25.9929C171.379 25.9929 171.379 25.9929 171.379 25.2562C171.379 25.2562 170.643 25.2562 170.643 24.5196C170.643 24.5196 169.908 24.5196 169.908 23.7829C169.908 22.3096 168.437 21.573 167.701 20.0997C165.494 17.8897 163.288 15.6797 163.288 13.4698C163.288 12.7331 162.552 11.2598 165.494 11.9964C166.966 11.9964 166.23 11.2598 166.23 11.2598C166.23 10.5231 164.759 9.78649 166.966 9.04983C167.701 9.78649 167.701 10.5231 168.437 10.5231C169.172 10.5231 169.172 11.9964 169.908 11.9964C172.114 12.7331 171.379 14.2064 169.908 14.9431C170.643 15.6797 171.379 17.153 172.114 17.8897C172.85 18.6263 173.585 19.363 174.321 20.0997C176.527 21.573 177.998 23.0463 180.205 24.5196H180.941C181.676 24.5196 182.412 23.7829 183.147 24.5196C183.883 25.2562 185.354 25.2562 186.089 25.9929C186.825 26.7296 188.296 27.4662 189.031 28.2029H189.767C189.767 27.4662 191.238 26.7296 191.238 25.9929C191.238 25.9929 191.238 25.9929 191.238 25.2562C190.502 24.5196 189.767 24.5196 188.296 23.7829C186.089 21.573 183.883 20.0997 181.676 17.8897C180.205 17.153 178.734 15.6797 179.47 14.2064C183.883 17.153 187.56 20.8363 191.974 23.7829C191.974 23.7829 192.709 23.7829 192.709 24.5196C193.445 24.5196 193.445 24.5196 194.18 24.5196H194.916C194.916 24.5196 194.916 23.7829 195.651 23.7829C196.387 23.7829 196.387 23.7829 196.387 24.5196H197.122C197.122 24.5196 197.122 24.5196 197.122 23.7829C197.122 23.0463 197.122 23.0463 197.122 22.3096C194.916 21.573 193.445 20.0997 191.974 18.6264C191.238 17.8897 190.502 17.153 189.767 16.4164C189.767 16.4164 189.031 16.4164 189.031 15.6797C188.296 14.9431 187.56 14.2064 187.56 13.4698C189.031 13.4698 189.767 14.2064 189.767 14.9431L190.502 15.6797C191.238 15.6797 191.974 16.4164 192.709 17.153C192.709 17.153 193.445 17.153 193.445 17.8897H194.18H194.916C194.916 17.8897 194.18 17.153 194.916 17.153C195.651 17.153 195.651 17.153 196.387 17.8897C197.858 18.6263 197.858 18.6263 198.593 17.153C197.858 16.4164 196.387 15.6797 197.122 14.2064C198.593 14.9431 199.329 15.6797 200.064 17.153C200.8 17.153 200.8 17.8897 201.535 17.8897C202.271 17.8897 203.742 17.8897 204.478 17.153C204.478 16.4164 205.213 15.6797 205.213 14.9431C205.949 14.9431 207.42 14.2064 207.42 15.6797C208.155 15.6797 208.891 15.6797 209.626 15.6797C209.626 14.9431 209.626 14.2064 208.891 13.4698C207.42 12.7331 205.949 11.9965 205.213 11.2598L205.949 10.5231C206.684 10.5231 207.42 11.2598 207.42 11.2598C208.155 11.2598 208.155 11.2598 208.891 11.2598C208.891 10.5231 208.155 10.5231 208.891 9.78649C210.362 9.78649 210.362 11.2598 211.097 11.2598C211.097 11.2598 211.097 11.2598 211.097 11.9964C211.097 11.9964 211.833 11.9965 211.833 12.7331H211.097H211.833C212.568 13.4698 213.304 14.2064 214.039 14.9431C214.039 14.9431 214.775 14.9431 214.775 15.6797L215.511 16.4164C216.246 16.4164 216.982 17.153 217.717 17.8897C218.453 17.8897 218.453 17.8897 219.188 18.6264C219.924 18.6264 219.924 18.6263 219.924 19.363L220.659 20.0997C222.13 20.0997 223.601 20.8363 225.072 21.573C225.808 21.573 226.543 22.3096 227.279 22.3096H228.015C228.015 21.573 226.543 21.573 226.543 20.8363C227.279 21.573 228.75 20.8363 229.486 22.3096C230.957 22.3096 231.692 22.3096 232.428 23.0463C233.163 23.0463 233.899 22.3096 234.634 23.0463C236.105 23.7829 237.576 24.5196 239.048 25.2562C239.783 25.2562 240.519 25.2562 240.519 25.9929C241.254 25.9929 241.99 26.7295 243.461 26.7295H244.196C244.196 26.7295 244.196 26.7295 244.932 26.7295C244.932 26.7295 244.932 26.7295 244.932 27.4662C244.932 27.4662 244.932 27.4662 244.932 26.7295C245.667 26.7295 246.403 26.7295 246.403 26.7295C247.138 26.7295 247.138 26.7296 247.138 25.9929C247.138 25.2562 247.874 24.5196 248.609 23.7829C247.874 23.7829 247.138 23.7829 246.403 23.7829C245.667 23.7829 245.667 23.7829 245.667 23.0463C244.932 23.0463 244.932 22.3096 243.461 22.3096C241.99 20.8363 241.99 20.8363 244.932 20.0997C244.932 20.8363 244.932 20.8363 244.932 21.573C244.932 22.3096 246.403 22.3096 247.138 22.3096C247.138 21.573 246.403 20.8363 248.609 20.8363C248.609 20.0997 249.345 20.0997 250.08 20.0997C250.816 20.0997 250.816 20.0997 251.552 20.0997C251.552 19.363 250.816 19.363 250.816 18.6264C250.08 18.6264 250.081 18.6264 249.345 18.6264C248.609 18.6264 248.609 17.8897 247.874 17.8897C246.403 17.153 244.932 16.4164 243.461 15.6797C242.725 15.6797 241.99 15.6797 241.99 14.9431C241.99 14.2064 242.725 14.9431 243.461 14.9431C243.461 14.9431 244.196 14.9431 244.196 15.6797C245.667 15.6797 247.138 16.4164 248.609 17.153C249.345 17.153 250.08 17.153 250.08 17.8897H250.816C251.552 17.8897 252.287 17.8897 252.287 17.153C252.287 17.153 252.287 17.153 252.287 16.4164C250.816 15.6797 251.552 14.2064 249.345 13.4698C246.403 11.9965 246.403 11.9965 247.138 9.78649C248.609 9.78649 250.08 10.5231 250.816 11.2598C251.552 10.5231 253.023 10.5231 253.023 9.78649C253.023 9.78649 253.758 9.78649 254.494 9.78649C255.229 9.78649 256.7 10.5231 257.436 10.5231C258.171 10.5231 259.642 10.5231 260.378 10.5231V9.78649C259.642 9.78649 259.642 9.04983 259.642 8.31317C260.378 8.31317 260.378 8.31317 260.378 8.31317C261.113 8.31317 261.113 9.04983 261.849 9.04983C262.585 9.04983 263.32 9.78649 264.791 9.78649C266.262 9.78649 267.733 10.5231 267.733 11.2598C267.733 11.2598 267.733 11.2598 268.469 11.2598C269.94 10.5231 269.94 10.5231 272.146 11.9964H272.882C274.353 11.9964 275.824 12.7331 276.56 12.7331C278.766 12.7331 280.973 13.4698 283.915 13.4698C286.857 12.7331 289.064 13.4698 292.006 14.2064C292.741 14.2064 294.212 13.4698 294.948 14.9431C295.683 14.9431 297.154 14.9431 297.89 15.6797L298.626 16.4164C299.361 16.4164 300.097 15.6797 300.097 14.9431C299.361 14.9431 299.361 14.9431 299.361 14.2064C298.626 14.2064 297.89 13.4698 297.154 13.4698C296.419 13.4698 295.683 12.7331 295.683 12.7331C294.948 12.7331 294.948 12.7331 294.212 11.9964C293.477 11.9964 292.741 11.2598 293.477 10.5231C294.212 9.78649 294.948 10.5231 294.948 10.5231C294.948 9.78649 295.683 9.04983 297.154 9.04983C298.626 9.04983 298.626 10.5231 299.361 11.2598C298.626 11.2598 297.89 11.2598 297.154 11.9964C297.154 11.9964 297.89 11.9965 297.89 12.7331C297.89 12.7331 298.626 12.7331 298.626 13.4698C299.361 13.4698 299.361 14.2064 300.097 14.2064C299.361 13.4698 300.832 12.7331 302.303 12.7331C303.774 11.9965 303.774 13.4698 303.774 13.4698C304.51 13.4698 304.51 14.2064 304.51 14.9431C304.51 14.9431 304.51 14.9431 304.51 15.6797C305.245 15.6797 305.245 15.6797 305.981 15.6797C306.716 15.6797 306.716 14.9431 307.452 15.6797C308.187 15.6797 309.658 15.6797 310.394 15.6797C311.13 15.6797 311.865 14.9431 311.865 14.9431C311.13 14.2064 308.923 13.4698 308.187 12.7331C308.187 12.7331 307.452 12.7331 307.452 11.9964C306.716 11.2598 305.981 10.5231 304.51 10.5231C303.774 10.5231 303.039 9.78649 303.039 9.78649C302.303 9.04983 300.097 8.31318 299.361 6.83987C300.097 7.57653 302.303 6.83988 303.039 7.57653H303.774C307.452 9.04984 311.13 11.2598 314.807 12.7331C315.543 12.7331 315.543 13.4698 316.278 13.4698C317.749 12.7331 318.485 12.7331 319.22 14.2064C319.956 14.9431 321.427 14.9431 321.427 14.2064C321.427 13.4698 322.163 13.4698 322.898 14.2064C323.634 14.9431 324.369 14.9431 325.105 15.6797H325.84H326.576C325.84 14.9431 325.84 14.9431 325.105 14.2064C326.576 14.2064 327.311 14.9431 328.047 15.6797C328.782 15.6797 329.518 16.4164 330.253 16.4164C333.195 16.4164 330.253 17.153 330.253 17.8897C330.989 17.8897 330.989 18.6264 331.724 18.6264C333.195 17.8897 332.46 16.4164 332.46 14.9431C331.724 14.9431 330.253 14.9431 330.989 13.4698C331.724 13.4698 332.46 14.2064 332.46 14.9431C333.931 15.6797 334.667 15.6797 336.138 15.6797C337.609 15.6797 338.344 16.4164 336.873 17.153C336.873 17.153 336.873 17.8897 337.609 17.8897C337.609 17.8897 337.609 17.8897 338.344 17.8897C340.551 17.153 340.551 17.153 340.551 18.6264C341.286 18.6264 341.286 18.6264 342.022 18.6264C342.757 17.8897 343.493 18.6264 344.228 18.6264C344.964 18.6264 344.964 19.363 345.7 19.363C347.171 19.363 347.906 20.0997 348.642 20.0997C349.377 20.8363 350.113 18.6263 351.584 19.363C353.055 19.363 353.055 20.0997 353.79 20.0997C355.261 20.0997 356.732 18.6263 356.732 20.8363C356.732 21.573 357.468 21.573 358.204 21.573C358.939 20.8363 360.41 20.8363 361.146 21.573C361.881 22.3096 362.617 23.0463 363.352 23.0463C363.352 23.7829 364.823 23.0463 364.823 23.7829C365.559 23.7829 365.559 23.0463 366.294 23.0463C367.03 22.3096 367.765 22.3096 369.236 22.3096C369.236 23.7829 369.236 24.5196 369.236 25.2562C369.236 25.9929 369.972 26.7295 370.708 26.7295C371.443 26.7295 371.443 25.9929 371.443 25.9929C371.443 25.2562 371.443 25.2562 371.443 24.5196C371.443 24.5196 371.443 23.7829 372.179 23.7829C372.179 23.7829 372.179 24.5196 372.914 24.5196C373.65 25.2562 374.385 23.7829 375.121 23.7829C375.856 23.7829 376.592 23.7829 377.327 23.7829C377.327 23.7829 377.327 23.0463 378.063 23.0463C378.798 23.0463 378.063 23.7829 378.798 23.7829C378.798 24.5196 378.063 25.2562 379.534 25.9929C379.534 25.2562 379.534 25.2562 380.269 24.5196C381.005 24.5196 381.005 25.2562 381.005 25.2562C381.005 25.2562 381.741 25.2562 381.741 25.9929C381.741 25.9929 382.476 25.9929 382.476 26.7295C383.212 25.9929 383.212 25.2562 383.212 24.5196C383.212 24.5196 383.212 23.7829 383.947 23.7829C384.683 23.7829 383.947 24.5196 383.947 24.5196C383.947 25.2562 384.683 25.2562 384.683 25.9929C385.418 25.9929 385.418 25.9929 386.154 25.9929C386.154 25.9929 386.889 25.9929 386.889 25.2562C386.889 25.2562 386.889 25.2562 386.889 24.5196C386.889 23.7829 386.889 23.0463 387.625 22.3096V21.573C387.625 21.573 387.625 20.8363 388.36 20.8363C389.096 20.0997 389.096 19.363 389.096 18.6264C389.096 17.8897 389.831 17.153 390.567 16.4164H391.302H392.038C392.773 15.6797 393.509 14.2064 395.716 14.2064C395.716 14.2064 395.716 13.4698 396.451 13.4698C397.922 13.4698 397.187 14.2064 397.187 14.9431C397.187 15.6797 397.922 15.6797 398.658 15.6797C399.393 14.9431 400.129 14.9431 400.864 14.9431H401.6C402.335 14.9431 403.071 14.9431 403.806 15.6797C403.806 15.6797 403.806 15.6797 403.806 16.4164C403.806 16.4164 404.542 16.4164 404.542 17.153C405.278 17.153 406.749 16.4164 407.484 16.4164C408.22 16.4164 408.22 16.4164 408.955 17.153C410.426 16.4164 411.897 16.4164 412.633 16.4164C414.104 17.153 414.839 16.4164 416.31 16.4164C418.517 15.6797 417.782 17.153 417.782 17.153H418.517C419.253 17.153 419.988 16.4164 419.988 17.153C419.988 17.8897 419.253 17.8897 419.988 18.6264C420.724 18.6264 421.459 17.8897 422.195 17.153C422.195 17.153 422.195 17.153 422.195 16.4164C422.195 16.4164 422.195 16.4164 422.195 17.153C422.195 17.8897 422.195 19.363 424.401 18.6264H425.137C425.872 18.6264 425.872 17.8897 426.608 17.8897C427.343 17.8897 427.343 18.6264 428.079 18.6264C428.079 17.8897 428.079 17.153 429.55 17.8897C430.286 17.8897 431.021 18.6263 430.286 19.363C430.286 20.0997 430.286 20.8363 429.55 21.573C429.55 22.3096 429.55 23.0463 429.55 23.7829C430.286 25.2562 431.021 25.9929 430.286 27.4662C431.757 28.2029 431.757 28.9395 431.757 29.6762C431.757 30.4128 431.757 31.8861 431.757 32.6228C432.492 34.8328 432.492 32.6228 432.492 35.5694C432.492 36.3061 432.492 37.0427 433.963 37.0427C433.963 35.5694 433.963 34.0961 433.963 33.3594C434.699 31.1495 434.699 32.6228 433.963 30.4128C433.963 29.6762 433.228 28.9395 435.434 28.9395C436.905 28.2029 437.641 28.2029 438.376 28.9395C439.112 29.6762 438.376 30.4128 439.112 30.4128C439.112 29.6762 439.847 28.9395 440.583 28.2029V27.4662C440.583 26.7295 441.319 25.9929 442.054 26.7295C442.79 26.7295 442.79 27.4662 442.054 28.2029C442.054 28.2029 442.054 28.2029 442.054 28.9395C442.79 28.9395 443.525 28.2029 444.261 28.2029C444.261 28.9395 443.525 29.6762 444.261 29.6762L444.996 28.9395V28.2029C445.732 26.7295 445.732 24.5196 449.409 23.0463C449.409 22.3096 449.409 22.3096 449.409 21.573C449.409 20.8363 451.616 20.0997 452.351 20.8363C453.087 20.0997 454.558 20.8363 455.294 20.0997C455.294 19.363 455.294 18.6263 456.765 17.8897C457.5 17.8897 458.236 19.363 459.707 17.8897C459.707 17.8897 458.971 16.4164 460.442 17.153C461.178 17.153 461.178 17.8897 461.178 17.8897C461.178 18.6263 461.913 19.363 461.913 19.363C462.649 19.363 462.649 20.0997 463.384 19.363C464.12 17.8897 464.12 19.363 464.856 19.363C466.327 19.363 466.327 18.6263 466.327 17.8897C466.327 17.153 465.591 17.153 466.327 17.153C467.062 17.153 467.798 17.153 467.798 17.8897L468.533 18.6264C468.533 18.6264 469.269 18.6263 469.269 19.363C470.74 19.363 471.475 20.0997 472.211 20.8363C472.946 21.573 472.946 21.573 473.682 21.573C473.682 20.8363 474.417 20.8363 475.153 20.8363C475.888 20.0997 476.624 20.0997 476.624 19.363C476.624 18.6263 477.36 19.363 477.36 19.363C477.36 19.363 478.095 19.363 478.095 20.0997H478.831H479.566C479.566 20.0997 480.302 20.0997 480.302 20.8363C481.037 21.573 481.773 22.3096 481.773 23.0463C481.773 23.0463 481.773 23.0463 481.773 23.7829C482.508 24.5196 482.508 25.2562 483.244 25.9929C483.244 25.9929 484.715 27.4662 485.45 27.4662C486.186 27.4662 487.657 28.2029 487.657 28.2029H489.864C489.864 28.2029 488.392 29.6762 492.806 29.6762C494.277 28.9395 494.277 27.4662 494.277 26.7295C494.277 25.9929 495.012 25.2562 495.748 24.5196C495.748 23.7829 495.748 23.0463 496.483 23.0463C497.219 21.573 498.69 20.0997 499.425 17.8897C499.425 17.8897 499.425 17.153 500.161 17.153C500.161 17.153 500.161 17.153 500.161 16.4164C500.897 15.6797 500.897 15.6797 502.368 15.6797C503.103 15.6797 503.103 15.6797 503.839 15.6797L504.574 14.9431C505.31 14.2064 505.31 13.4698 506.781 14.2064C506.781 14.2064 507.516 14.2064 508.252 14.2064C509.723 13.4698 511.194 14.2064 512.665 14.9431C514.136 15.6797 515.607 15.6797 517.078 14.2064C517.814 13.4698 520.02 12.7331 520.756 13.4698C523.698 14.2064 525.169 13.4698 527.376 12.7331C528.111 13.4698 529.582 12.7331 531.053 13.4698C533.26 12.7331 533.995 12.7331 534.731 14.2064C536.202 14.2064 536.202 14.9431 537.673 14.9431C539.88 14.9431 539.88 14.9431 539.144 16.4164L538.409 17.153C539.144 17.153 539.144 17.8897 538.409 17.8897L537.673 18.6264C536.938 19.363 537.673 20.0997 536.202 20.8363V21.573C535.466 23.0463 535.466 23.7829 535.466 25.2562C535.466 25.2562 536.202 25.2562 536.202 25.9929C536.938 26.7296 535.466 28.2029 538.409 27.4662C539.144 27.4662 539.88 27.4662 539.88 28.2029C542.822 28.2029 544.293 28.2029 545.764 28.2029C546.499 28.2029 547.235 28.2029 547.97 28.2029C547.97 28.2029 548.706 28.2029 548.706 27.4662C549.442 26.7295 550.913 25.9929 550.913 25.2562C551.648 24.5196 551.648 24.5196 552.384 23.7829C553.119 23.7829 553.119 23.7829 553.855 23.0463C554.59 22.3096 555.326 22.3096 556.061 22.3096C556.797 22.3096 556.797 22.3096 557.532 22.3096C560.475 22.3096 564.152 21.573 567.094 23.0463C567.83 23.0463 567.83 23.0463 568.565 23.0463C571.507 23.0463 573.714 23.0463 576.656 23.0463C577.392 23.0463 578.127 23.0463 578.127 23.0463C578.863 21.573 580.334 21.573 581.805 23.0463C582.54 23.7829 584.011 23.7829 585.483 23.0463C586.954 23.0463 587.689 23.0463 589.16 23.7829C589.16 23.7829 589.16 23.7829 589.16 23.0463C589.896 21.573 591.367 22.3096 592.838 22.3096C593.573 21.573 595.044 20.8363 596.516 20.8363C597.251 20.8363 598.722 20.8363 599.458 20.8363C600.193 19.363 601.664 20.0997 603.135 20.0997C603.871 20.0997 605.342 20.0997 606.077 19.363C608.284 18.6263 609.755 19.363 611.962 19.363C611.962 19.363 612.697 19.363 612.697 18.6264C613.433 17.8897 614.904 17.8897 615.639 17.153C616.375 15.6797 617.846 15.6797 619.317 16.4164C620.052 16.4164 620.788 16.4164 620.788 17.153C622.995 17.153 625.201 17.8897 627.408 17.153C628.143 17.153 628.143 17.153 628.879 17.8897H629.614C630.35 17.8897 630.35 18.6264 630.35 18.6264C630.35 19.363 630.35 19.363 630.35 20.0997C630.35 20.0997 630.35 20.0997 630.35 20.8363C631.085 21.573 631.085 21.573 631.085 22.3096C631.085 23.0463 631.085 23.0463 631.085 23.7829V24.5196C631.085 24.5196 631.085 24.5196 631.085 25.2562C631.821 25.9929 631.821 26.7295 631.085 26.7295C630.35 26.7295 630.35 25.9929 630.35 25.9929C630.35 25.9929 630.35 25.9929 630.35 25.2562C630.35 25.2562 630.35 25.2562 629.614 25.2562C629.614 25.9929 629.614 27.4662 629.614 28.2029C630.35 28.2029 630.35 28.2029 631.085 28.9395C631.821 28.9395 631.821 29.6762 631.821 29.6762C631.821 29.6762 632.557 29.6762 632.557 30.4128C634.763 30.4128 636.97 29.6762 637.705 31.1495C639.176 31.1495 639.912 31.1495 641.383 31.8861C642.118 31.8861 642.118 31.8861 642.854 31.8861C643.59 31.8861 643.589 31.1495 644.325 31.1495C645.061 31.1495 645.061 31.8861 645.061 31.8861V32.6228C645.061 32.6228 645.061 32.6228 645.061 33.3594C645.061 33.3594 644.325 33.3594 644.325 34.0961C644.325 34.8327 645.061 34.0961 645.796 34.8327C646.532 34.8327 646.532 34.8328 647.267 35.5694C647.267 34.8328 648.003 33.3594 648.738 32.6228C648.738 29.6762 650.209 27.4662 651.68 25.2562C651.68 23.0463 653.151 21.573 653.887 19.363C654.622 18.6263 654.622 16.4164 656.093 15.6797C656.829 14.9431 657.565 14.9431 659.036 14.9431C661.978 14.9431 665.655 14.2064 668.598 15.6797C670.069 14.9431 671.54 15.6797 672.275 16.4164C673.011 16.4164 674.482 15.6797 675.217 16.4164C677.424 17.153 680.366 17.153 682.573 17.153C684.044 16.4164 686.25 16.4164 687.721 16.4164L688.457 17.153C688.457 17.8897 689.192 17.153 689.928 17.8897C691.399 17.8897 692.87 18.6264 694.341 18.6264C695.077 18.6264 695.077 17.8897 695.812 18.6264C695.812 19.363 696.548 19.363 697.283 20.0997C698.019 20.0997 699.49 19.363 699.49 18.6264C699.49 18.6264 699.49 18.6263 700.225 17.8897C700.961 17.153 701.696 16.4164 702.432 15.6797C702.432 15.6797 702.432 14.9431 703.167 14.9431C704.639 12.7331 707.581 10.5231 709.787 8.31317C711.258 7.57652 712.729 7.57653 714.2 7.57653C715.672 7.57653 714.936 8.31318 714.936 9.04983C717.143 8.31318 714.936 6.83987 715.672 6.10322C716.407 6.10322 717.143 6.10322 717.878 6.83987C719.349 6.83987 720.82 6.83988 721.556 7.57653C724.498 7.57653 727.44 7.57652 729.647 9.04983C730.382 9.04983 730.382 9.78649 731.118 9.78649C731.853 9.04983 731.853 9.78649 732.589 9.78649C733.324 9.04983 734.795 9.04983 735.531 9.04983C736.266 9.04983 737.002 9.78649 737.737 9.04983C739.944 8.31318 740.68 9.04983 742.151 9.78649C743.622 10.5231 744.357 11.2598 745.828 11.9964C746.564 11.9964 747.299 11.2598 747.299 11.2598C748.035 9.78649 749.506 9.04983 750.977 9.04983C750.977 8.31318 751.713 7.57653 752.448 7.57653C752.448 6.83988 753.184 6.10322 753.919 6.10322C753.919 4.62991 756.126 4.62991 756.861 3.89326C756.861 3.89326 756.861 3.89325 756.861 3.1566C756.861 3.1566 757.597 3.1566 757.597 2.41994C759.803 0.209977 759.803 0.209974 762.745 1.68328C762.745 1.68328 763.481 1.68329 763.481 2.41994H764.217C765.688 2.41994 766.423 2.41994 766.423 3.1566C767.159 3.1566 767.894 3.1566 768.63 3.1566C769.365 3.89325 771.572 3.89325 773.043 4.6299C776.721 5.36655 780.398 6.83988 784.076 7.57653C784.811 7.57653 786.282 8.31317 787.018 8.31317C789.225 9.78648 791.431 11.2598 791.431 13.4698V14.2064C791.431 14.9431 791.431 15.6797 791.431 16.4164C791.431 18.6263 790.696 20.0997 790.696 21.573C791.431 21.573 791.431 23.0463 792.167 23.0463C792.902 22.3096 791.431 21.573 792.902 20.8363C795.109 20.0997 794.373 21.573 794.373 21.573C794.373 22.3096 794.373 23.0463 793.638 23.0463C792.902 23.0463 793.638 23.7829 793.638 23.7829C794.373 24.5196 794.373 24.5196 794.373 25.2562C795.109 25.2562 795.109 25.2562 795.844 25.2562V24.5196C795.844 23.7829 795.844 23.7829 795.844 23.0463C795.844 22.3096 796.58 22.3096 796.58 21.573C796.58 20.8363 796.58 20.8363 796.58 20.0997C796.58 19.363 797.315 19.363 798.051 20.0997C798.787 20.0997 798.786 20.0997 799.522 20.0997C800.258 18.6263 798.787 16.4164 800.258 14.2064C801.729 15.6797 800.993 17.153 800.993 18.6264C801.729 19.363 801.729 20.0997 802.464 20.8363C803.2 20.0997 802.464 18.6263 803.2 17.8897C803.935 18.6263 803.935 19.363 803.935 19.363H804.671C805.406 19.363 805.406 18.6263 806.142 19.363C807.613 20.8363 809.084 22.3096 809.819 23.7829C810.555 24.5196 811.291 25.2562 812.026 25.9929C813.497 25.9929 814.233 25.2562 815.704 25.9929H817.175V25.2562C817.175 24.5196 818.646 25.2562 819.381 24.5196C820.852 23.7829 823.059 24.5196 824.53 23.7829C823.795 23.7829 823.059 23.7829 822.324 23.7829C821.588 23.7829 820.852 23.7829 820.852 23.7829C818.646 23.7829 818.646 23.0463 819.381 22.3096H818.646H817.91C817.91 22.3096 817.91 21.573 818.646 21.573H819.381H820.117C820.117 20.0997 821.588 20.8363 822.324 20.8363C825.266 20.0997 827.472 20.0997 830.414 20.8363C831.15 20.8363 831.15 20.8363 831.15 20.8363C831.15 20.8363 831.15 20.8363 831.885 20.8363L832.621 20.0997C835.563 20.0997 838.505 20.0997 841.447 20.8363C842.918 20.8363 845.125 20.8363 846.596 21.573C847.332 21.573 848.067 21.573 848.803 21.573C850.274 21.573 851.745 21.573 852.48 22.3096C854.687 22.3096 856.893 22.3096 859.1 22.3096C859.1 21.573 857.629 21.573 857.629 21.573C856.158 21.573 855.422 21.573 853.951 20.8363C851.745 20.8363 850.274 20.0997 848.067 20.0997C846.596 20.0997 844.389 20.0997 842.918 19.363C841.447 19.363 839.241 19.363 837.77 19.363C837.034 19.363 836.299 19.363 836.299 19.363C835.563 19.363 834.828 19.363 834.828 18.6264C834.828 18.6264 835.563 18.6263 835.563 17.8897C834.828 17.8897 834.092 17.8897 833.356 18.6264C831.885 18.6264 829.679 19.363 828.208 18.6264C828.208 18.6264 828.208 18.6263 828.208 17.8897C827.472 17.8897 826.001 17.8897 825.266 17.8897C824.53 17.8897 824.53 17.8897 823.795 17.153C822.323 17.153 820.852 17.8897 820.117 16.4164C822.323 16.4164 823.795 16.4164 826.001 16.4164C826.001 15.6797 826.737 15.6797 827.472 15.6797C827.472 15.6797 827.472 15.6797 828.208 15.6797C828.208 15.6797 828.208 15.6797 827.472 15.6797C827.472 15.6797 826.737 15.6797 826.737 14.9431C826.001 14.9431 824.53 14.2064 823.795 14.2064H823.059C822.324 14.2064 823.059 13.4698 823.059 13.4698C824.53 13.4698 826.001 13.4698 827.472 13.4698C830.414 13.4698 834.092 13.4698 837.034 14.2064C837.77 14.2064 837.77 14.2064 838.505 14.2064H839.241C840.712 14.9431 841.447 14.2064 842.918 14.2064H843.654C845.125 14.2064 847.332 14.2064 848.803 14.2064C849.538 14.2064 851.009 14.2064 851.745 14.2064C854.687 14.2064 856.893 14.9431 859.836 14.9431C862.042 14.9431 864.249 14.9431 866.455 15.6797C868.662 15.6797 870.133 15.6797 872.34 16.4164H873.075C873.075 16.4164 873.811 16.4164 873.811 17.153C874.546 17.8897 874.546 17.8897 875.282 17.153C876.753 17.153 878.224 17.8897 879.695 17.8897L878.959 17.153C877.488 16.4164 876.017 16.4164 874.546 15.6797C876.017 14.9431 877.488 16.4164 878.959 16.4164C881.166 17.153 884.108 17.153 886.315 17.8897C887.05 17.8897 889.257 17.8897 889.257 18.6264H889.992C891.463 18.6264 892.199 18.6264 893.67 18.6264C894.406 18.6264 895.877 18.6263 896.612 19.363C899.554 20.0997 902.496 20.8363 904.703 21.573C905.438 21.573 906.174 22.3096 906.174 22.3096C908.381 22.3096 909.852 22.3096 911.323 23.0463C912.058 23.7829 913.529 24.5196 915 23.7829C913.529 22.3096 912.058 21.573 910.587 20.0997C909.852 20.0997 909.852 20.0997 909.852 19.363C908.381 18.6263 906.91 17.8897 906.174 17.153C904.703 16.4164 903.967 15.6797 903.232 14.9431C903.232 14.9431 902.496 14.9431 902.496 14.2064H903.232C903.967 13.4698 905.439 13.4698 906.91 13.4698C907.645 13.4698 907.645 12.7331 908.381 13.4698C909.116 14.2064 910.587 14.2064 911.323 14.2064C912.794 14.2064 914.265 13.4698 915.736 14.9431C919.414 14.2064 922.356 14.2064 926.033 14.9431C927.504 15.6797 928.24 14.9431 929.711 14.9431C930.447 14.9431 930.447 14.9431 931.182 14.9431C936.331 15.6797 941.479 15.6797 945.157 18.6264C948.099 18.6264 950.306 18.6263 952.512 19.363C952.512 19.363 953.248 18.6263 953.983 19.363V20.0997C954.719 20.0997 954.719 20.0997 955.455 20.0997C956.19 20.0997 956.926 20.0997 957.661 20.0997C959.132 19.363 959.868 19.363 959.868 19.363L960.603 18.6264C961.339 17.153 962.074 18.6264 962.81 18.6264C962.81 17.8897 962.81 17.8897 963.545 17.8897C965.016 16.4164 965.752 14.9431 966.487 13.4698C967.223 12.7331 967.959 13.4698 968.694 12.7331L970.165 11.9964C970.901 13.4698 973.107 12.7331 973.843 12.7331C973.843 12.7331 973.843 12.7331 973.843 13.4698C974.578 13.4698 975.314 13.4698 975.314 14.2064C976.049 14.2064 976.785 14.2064 977.52 14.2064C978.992 13.4698 979.727 14.9431 981.198 14.9431C982.669 14.2064 983.405 13.4698 985.611 14.2064C986.347 14.2064 986.347 14.9431 986.347 14.9431C987.082 14.9431 987.818 14.9431 988.553 14.9431C989.289 14.9431 990.76 14.2064 990.76 14.9431C991.496 14.9431 991.496 14.9431 992.231 14.2064C992.967 14.2064 993.702 14.2064 993.702 14.2064C994.438 14.2064 994.438 14.2064 995.173 14.2064C995.909 14.2064 995.909 14.2064 996.644 14.2064C998.115 14.2064 998.851 13.4698 1000.32 13.4698C1001.06 14.2064 1000.32 14.9431 1001.06 15.6797C1003.26 16.4164 1003.26 16.4164 1005.47 15.6797C1006.21 15.6797 1006.94 15.6797 1008.41 15.6797C1009.15 14.9431 1009.88 15.6797 1010.62 15.6797C1011.35 15.6797 1012.09 15.6797 1011.35 16.4164C1011.35 17.153 1012.09 16.4164 1012.09 16.4164C1015.03 14.9431 1017.97 15.6797 1020.92 17.153H1021.65C1021.65 17.153 1021.65 17.153 1022.39 17.153V17.8897V18.6264V19.363C1024.59 18.6263 1026.8 18.6263 1029.01 20.0997C1029.74 20.0997 1029.74 20.0997 1030.48 20.0997H1031.21L1030.48 19.363C1030.48 17.8897 1030.48 17.8897 1032.69 17.8897H1033.42C1033.42 17.8897 1033.42 17.8897 1033.42 17.153C1033.42 16.4164 1033.42 15.6797 1034.16 15.6797C1036.36 15.6797 1037.83 14.9431 1040.04 14.9431C1040.78 14.2064 1042.25 14.9431 1042.25 13.4698C1041.51 11.9965 1042.25 11.2598 1044.45 11.9964H1045.19C1045.92 11.9964 1046.66 11.2598 1047.4 11.2598C1048.13 11.2598 1048.13 11.2598 1048.87 11.2598C1049.6 11.2598 1049.6 10.5231 1050.34 10.5231H1051.07C1051.81 9.78649 1053.28 10.5231 1054.02 9.78649C1054.75 9.04983 1054.75 9.78649 1055.49 9.78649C1057.69 10.5231 1059.9 11.9965 1061.37 12.7331C1062.11 12.7331 1062.84 12.7331 1062.84 13.4698C1066.52 15.6797 1070.2 17.8897 1073.88 20.0997C1073.88 20.0997 1073.88 20.0997 1073.88 20.8363C1073.88 20.8363 1074.61 20.8363 1074.61 21.573C1076.82 22.3096 1078.29 23.0463 1080.49 23.7829C1081.97 23.7829 1082.7 24.5196 1084.17 24.5196C1084.17 24.5196 1084.17 24.5196 1084.91 24.5196C1086.38 23.7829 1087.11 23.7829 1087.11 22.3096C1088.59 23.0463 1090.06 24.5196 1091.53 25.2562C1092.26 25.2562 1093.73 25.9929 1093.73 25.2562C1093.73 23.7829 1094.47 24.5196 1095.21 25.2562C1095.94 25.9929 1095.94 26.7295 1097.41 26.7295C1098.15 26.7295 1098.15 26.7296 1098.15 25.9929C1098.15 25.9929 1097.41 25.9929 1097.41 25.2562C1097.41 25.2562 1096.68 25.2562 1096.68 24.5196C1096.68 23.0463 1095.21 22.3096 1094.47 20.8363C1092.26 18.6263 1090.06 16.4164 1090.06 14.2064C1090.06 13.4698 1089.32 11.9965 1092.26 12.7331C1093.73 12.7331 1093 11.9964 1093 11.9964C1093 11.2598 1091.53 10.5231 1093.73 9.78649C1094.47 10.5231 1094.47 11.2598 1095.21 11.2598C1095.94 11.2598 1095.94 12.7331 1096.68 12.7331C1098.88 13.4698 1098.15 14.9431 1096.68 15.6797C1097.41 16.4164 1098.15 17.8897 1098.88 18.6264C1099.62 19.363 1100.35 20.0997 1101.09 20.8363C1103.3 22.3096 1104.77 23.7829 1106.97 25.2562H1107.71C1108.45 25.2562 1109.18 24.5196 1109.92 25.2562C1110.65 25.9929 1112.12 25.9929 1112.86 26.7295C1113.59 27.4662 1115.06 28.2029 1115.8 28.9395H1116.54C1116.54 28.2029 1118.01 27.4662 1118.01 26.7295C1118.01 26.7295 1118.01 26.7296 1118.01 25.9929C1117.27 25.2562 1116.54 25.2562 1115.06 24.5196C1112.86 22.3096 1110.65 20.8363 1108.44 18.6264C1106.97 17.8897 1105.5 16.4164 1106.24 14.9431C1110.65 17.8897 1114.33 21.573 1118.74 24.5196C1118.74 24.5196 1119.48 24.5196 1119.48 25.2562C1120.21 25.2562 1120.21 25.2562 1120.95 25.2562H1121.68C1121.68 25.2562 1121.68 24.5196 1122.42 24.5196C1123.16 24.5196 1123.16 24.5196 1123.16 25.2562H1123.89C1123.89 25.2562 1123.89 25.2562 1123.89 24.5196C1123.89 23.7829 1123.89 23.7829 1123.89 23.0463C1121.68 22.3096 1120.21 20.8363 1118.74 19.363C1118.01 18.6263 1117.27 17.8897 1116.54 17.153C1116.54 17.153 1115.8 17.153 1115.8 16.4164C1115.06 15.6797 1114.33 14.9431 1114.33 14.2064C1115.8 14.2064 1116.54 14.9431 1116.54 15.6797L1117.27 16.4164C1118.01 16.4164 1118.74 17.153 1119.48 17.8897C1119.48 17.8897 1120.21 17.8897 1120.21 18.6264H1120.95H1121.68C1121.68 18.6264 1120.95 17.8897 1121.68 17.8897C1122.42 17.8897 1122.42 17.8897 1123.16 18.6264C1124.63 19.363 1124.63 19.363 1125.36 17.8897C1124.63 17.153 1123.16 16.4164 1123.89 14.9431C1125.36 15.6797 1126.1 16.4164 1126.83 17.8897C1127.57 17.8897 1127.57 18.6264 1128.3 18.6264C1129.04 18.6264 1130.51 18.6263 1131.25 17.8897C1131.25 17.153 1131.98 16.4164 1131.98 15.6797C1132.72 15.6797 1134.19 14.9431 1134.19 16.4164C1134.92 16.4164 1135.66 16.4164 1136.4 16.4164C1136.4 15.6797 1136.4 14.9431 1135.66 14.2064C1134.19 13.4698 1132.72 12.7331 1131.98 11.9964L1132.72 11.2598C1133.45 11.2598 1134.19 11.9964 1134.19 11.9964C1134.92 11.9964 1134.92 11.9964 1135.66 11.9964C1135.66 11.2598 1134.92 11.2598 1135.66 10.5231C1137.13 10.5231 1137.13 11.9964 1137.87 11.9964C1137.87 11.9964 1137.87 11.9965 1137.87 12.7331C1137.87 12.7331 1138.6 12.7331 1138.6 13.4698H1137.87H1138.6C1139.34 14.2064 1140.07 14.9431 1140.81 15.6797C1140.81 15.6797 1141.54 15.6797 1141.54 16.4164L1142.28 17.153C1143.01 17.153 1143.75 17.8897 1144.49 18.6264C1145.22 18.6264 1145.22 18.6263 1145.96 19.363C1146.69 19.363 1146.69 19.363 1146.69 20.0997L1147.43 20.8363C1148.9 20.8363 1150.37 21.573 1151.84 22.3096C1152.58 22.3096 1153.31 23.0463 1154.05 23.0463H1154.78C1154.78 22.3096 1153.31 22.3096 1153.31 21.573C1154.05 22.3096 1155.52 21.573 1156.25 23.0463C1157.73 23.0463 1158.46 23.0463 1159.2 23.7829C1159.93 23.7829 1160.67 23.0463 1161.4 23.7829C1162.87 24.5196 1164.35 25.2562 1165.82 25.9929C1166.55 25.9929 1167.29 25.9929 1167.29 26.7295C1168.02 26.7295 1168.76 27.4662 1170.23 27.4662H1170.97C1170.97 27.4662 1170.97 27.4662 1171.7 27.4662C1171.7 27.4662 1171.7 27.4662 1171.7 28.2029C1171.7 28.2029 1171.7 28.2029 1171.7 27.4662C1172.44 27.4662 1173.17 27.4662 1173.17 27.4662C1173.91 27.4662 1173.91 27.4662 1173.91 26.7295C1173.91 25.9929 1174.64 25.2562 1175.38 24.5196C1174.64 24.5196 1173.91 24.5196 1173.17 24.5196C1172.44 24.5196 1172.44 24.5196 1172.44 23.7829C1171.7 23.7829 1171.7 23.0463 1170.23 23.0463C1168.76 21.573 1168.76 21.573 1171.7 20.8363C1171.7 21.573 1171.7 21.573 1171.7 22.3096C1171.7 23.0463 1173.17 23.0463 1173.91 23.0463C1173.91 22.3096 1173.17 21.573 1175.38 21.573C1175.38 20.8363 1176.11 20.8363 1176.85 20.8363C1177.58 20.8363 1177.58 20.8363 1178.32 20.8363C1178.32 20.0997 1177.58 20.0997 1177.58 19.363C1176.85 19.363 1176.85 19.363 1176.11 19.363C1175.38 19.363 1175.38 18.6264 1174.64 18.6264C1173.17 17.8897 1171.7 17.153 1170.23 16.4164C1169.49 16.4164 1168.76 16.4164 1168.76 15.6797C1168.76 14.9431 1169.49 15.6797 1170.23 15.6797C1170.23 15.6797 1170.97 15.6797 1170.97 16.4164C1172.44 16.4164 1173.91 17.153 1175.38 17.8897C1176.11 17.8897 1176.85 17.8897 1176.85 18.6264H1177.58C1178.32 18.6264 1179.06 18.6263 1179.06 17.8897C1179.06 17.8897 1179.06 17.8897 1179.06 17.153C1177.58 16.4164 1178.32 14.9431 1176.11 14.2064C1173.17 12.7331 1173.17 12.7331 1173.91 10.5231C1175.38 10.5231 1176.85 11.2598 1177.58 11.9964C1178.32 11.2598 1179.79 11.2598 1179.79 10.5231C1179.79 10.5231 1180.53 10.5231 1181.26 10.5231C1182 10.5231 1183.47 11.2598 1184.2 11.2598C1184.94 11.2598 1186.41 11.2598 1187.15 11.2598V10.5231C1186.41 10.5231 1186.41 9.78649 1186.41 9.04983C1187.15 9.04983 1187.15 9.04983 1187.15 9.04983C1187.88 9.04983 1187.88 9.78649 1188.62 9.78649C1189.35 9.78649 1190.09 10.5231 1191.56 10.5231C1193.03 10.5231 1194.5 11.2598 1194.5 11.9964C1194.5 11.9964 1194.5 11.9964 1195.24 11.9964C1196.71 11.2598 1196.71 11.2598 1198.92 12.7331H1199.65C1201.12 12.7331 1202.59 13.4698 1203.33 13.4698C1205.54 13.4698 1207.74 14.2064 1210.68 14.2064C1213.63 13.4698 1215.83 14.2064 1218.77 14.9431C1219.51 14.9431 1220.98 14.2064 1221.72 15.6797C1222.45 15.6797 1223.92 15.6797 1224.66 16.4164L1225.39 17.153C1226.13 17.153 1226.87 16.4164 1226.87 15.6797C1226.13 15.6797 1226.13 15.6797 1226.13 14.9431C1225.39 14.9431 1224.66 14.2064 1223.92 14.2064C1223.19 14.2064 1222.45 13.4698 1222.45 13.4698C1221.72 13.4698 1221.72 13.4698 1220.98 12.7331C1220.25 12.7331 1219.51 11.9965 1220.25 11.2598C1220.98 10.5231 1221.72 11.2598 1221.72 11.2598C1221.72 10.5231 1222.45 9.78649 1223.92 9.78649C1225.39 9.78649 1225.39 11.2598 1226.13 11.9964C1225.39 11.9964 1224.66 11.9965 1223.92 12.7331C1223.92 12.7331 1224.66 12.7331 1224.66 13.4698C1224.66 13.4698 1225.39 13.4698 1225.39 14.2064C1226.13 14.2064 1226.13 14.9431 1226.87 14.9431C1226.13 14.2064 1227.6 13.4698 1229.07 13.4698C1230.54 12.7331 1230.54 14.2064 1230.54 14.2064C1231.28 14.2064 1231.28 14.9431 1231.28 15.6797C1231.28 15.6797 1231.28 15.6797 1231.28 16.4164C1232.01 16.4164 1232.01 16.4164 1232.75 16.4164C1233.49 16.4164 1233.49 15.6797 1234.22 16.4164C1234.96 16.4164 1236.43 16.4164 1237.16 16.4164C1237.9 16.4164 1238.63 15.6797 1238.63 15.6797C1237.9 14.9431 1235.69 14.2064 1234.96 13.4698C1234.96 13.4698 1234.22 13.4698 1234.22 12.7331C1233.49 11.9965 1232.75 11.2598 1231.28 11.2598C1230.54 11.2598 1229.81 10.5231 1229.81 10.5231C1229.07 9.78649 1226.87 9.04984 1226.13 7.57653C1226.87 8.31319 1229.07 7.57652 1229.81 8.31317H1230.54C1234.22 9.78648 1237.9 11.9965 1241.58 13.4698C1242.31 13.4698 1242.31 14.2064 1243.05 14.2064C1244.52 13.4698 1245.25 13.4698 1245.99 14.9431C1246.72 15.6797 1248.2 15.6797 1248.2 14.9431C1248.2 14.2064 1248.93 14.2064 1249.67 14.9431C1250.4 15.6797 1251.14 15.6797 1251.87 16.4164H1252.61H1253.34C1252.61 15.6797 1252.61 15.6797 1251.87 14.9431C1253.34 14.9431 1254.08 15.6797 1254.82 16.4164C1255.55 16.4164 1256.29 17.153 1257.02 17.153C1259.96 17.153 1257.02 17.8897 1257.02 18.6264C1257.76 18.6264 1257.76 19.363 1258.49 19.363C1259.96 18.6263 1259.23 17.153 1259.23 15.6797C1258.49 15.6797 1257.02 15.6797 1257.76 14.2064C1258.49 14.2064 1259.23 14.9431 1259.23 15.6797C1260.7 16.4164 1261.44 16.4164 1262.91 16.4164C1264.38 16.4164 1265.11 17.153 1263.64 17.8897C1263.64 17.8897 1263.64 18.6264 1264.38 18.6264C1264.38 18.6264 1264.38 18.6264 1265.11 18.6264C1267.32 17.8897 1267.32 17.8897 1267.32 19.363C1268.06 19.363 1268.06 19.363 1268.79 19.363C1269.53 18.6263 1270.26 19.363 1271 19.363C1271.73 19.363 1271.73 20.0997 1272.47 20.0997C1273.94 20.0997 1274.67 20.8363 1275.41 20.8363C1276.15 21.573 1276.88 19.363 1278.35 20.0997C1279.82 20.0997 1279.82 20.8363 1280.56 20.8363C1282.03 20.8363 1283.5 19.363 1283.5 21.573C1283.5 22.3096 1284.24 22.3096 1284.97 22.3096C1285.71 21.573 1287.18 21.573 1287.91 22.3096C1288.65 23.0463 1289.39 23.7829 1290.12 23.7829C1290.12 24.5196 1291.59 23.7829 1291.59 24.5196C1292.33 24.5196 1292.33 23.7829 1293.06 23.7829C1293.8 23.0463 1294.53 23.0463 1296.01 23.0463C1296.01 24.5196 1296.01 25.2562 1296.01 25.9929C1296.01 26.7296 1296.74 27.4662 1297.48 27.4662C1298.21 27.4662 1298.21 26.7295 1298.21 26.7295C1298.21 25.9929 1298.21 25.9929 1298.21 25.2562C1298.21 25.2562 1298.21 24.5196 1298.95 24.5196C1298.95 24.5196 1298.95 25.2562 1299.68 25.2562C1300.42 25.9929 1301.15 24.5196 1301.89 24.5196C1302.63 24.5196 1303.36 24.5196 1304.1 24.5196C1304.1 24.5196 1304.1 23.7829 1304.83 23.7829C1305.57 23.7829 1304.83 24.5196 1305.57 24.5196C1305.57 25.2562 1304.83 25.9929 1306.3 26.7295C1306.3 25.9929 1306.3 25.9929 1307.04 25.2562C1307.77 25.2562 1307.77 25.9929 1307.77 25.9929C1307.77 25.9929 1308.51 25.9929 1308.51 26.7295C1308.51 26.7295 1309.24 26.7295 1309.24 27.4662C1309.98 26.7295 1309.98 25.9929 1309.98 25.2562C1309.98 25.2562 1309.98 24.5196 1310.72 24.5196C1311.45 24.5196 1310.72 25.2562 1310.72 25.2562C1310.72 25.9929 1311.45 25.9929 1311.45 26.7295C1312.19 26.7295 1312.19 26.7295 1312.92 26.7295C1312.92 26.7295 1313.66 26.7296 1313.66 25.9929C1313.66 25.9929 1313.66 25.9929 1313.66 25.2562C1313.66 24.5196 1313.66 23.7829 1314.39 23.0463V22.3096C1314.39 22.3096 1314.39 21.573 1315.13 21.573C1315.86 20.8363 1315.86 20.0997 1315.86 19.363C1315.86 18.6263 1316.6 17.8897 1317.34 17.153H1318.07H1318.81C1319.54 16.4164 1320.28 14.9431 1322.48 14.9431C1322.48 14.9431 1322.48 14.2064 1323.22 14.2064C1324.69 14.2064 1323.96 14.9431 1323.96 15.6797C1323.96 16.4164 1324.69 16.4164 1325.43 16.4164C1326.16 15.6797 1326.9 15.6797 1327.63 15.6797H1328.37C1329.1 15.6797 1329.84 15.6797 1330.58 16.4164C1330.58 16.4164 1330.58 16.4164 1330.58 17.153C1330.58 17.153 1331.31 17.153 1331.31 17.8897C1332.05 17.8897 1333.52 17.153 1334.25 17.153C1334.99 17.153 1334.99 17.153 1335.72 17.8897C1337.2 17.153 1338.67 17.153 1339.4 17.153C1340.87 17.8897 1341.61 17.153 1343.08 17.153C1345.29 16.4164 1344.55 17.8897 1344.55 17.8897H1345.29C1346.02 17.8897 1346.76 17.153 1346.76 17.8897C1346.76 18.6263 1346.02 18.6263 1346.76 19.363C1347.49 19.363 1348.23 18.6263 1348.96 17.8897C1348.96 17.8897 1348.96 17.8897 1348.96 17.153C1348.96 17.153 1348.96 17.153 1348.96 17.8897C1348.96 18.6263 1348.96 20.0997 1351.17 19.363H1351.91C1352.64 19.363 1352.64 18.6264 1353.38 18.6264C1354.11 18.6264 1354.11 19.363 1354.85 19.363C1354.85 18.6263 1354.85 17.8897 1356.32 18.6264C1357.05 18.6264 1357.79 19.363 1357.05 20.0997C1357.05 20.8363 1357.05 21.573 1356.32 22.3096C1356.32 23.0463 1356.32 23.7829 1356.32 24.5196C1357.05 25.9929 1357.79 26.7295 1357.05 28.2029C1358.53 28.9395 1358.53 29.6762 1358.53 30.4128C1358.53 31.1495 1358.53 32.6228 1358.53 33.3594C1359.26 35.5694 1359.26 33.3594 1359.26 36.3061C1359.26 37.0427 1359.26 37.7794 1360.73 37.7794C1360.73 36.3061 1360.73 34.8327 1360.73 34.0961C1361.47 31.8861 1361.47 33.3594 1360.73 31.1495C1360.73 30.4128 1360 29.6762 1362.2 29.6762C1363.67 28.9395 1364.41 28.9395 1365.15 29.6762C1365.88 30.4128 1365.15 31.1495 1365.88 31.1495C1365.88 30.4128 1366.62 29.6762 1367.35 28.9395V28.2029C1367.35 27.4662 1368.09 26.7295 1368.82 27.4662C1369.56 27.4662 1369.56 28.2029 1368.82 28.9395C1368.82 28.9395 1368.82 28.9395 1368.82 29.6762C1369.56 29.6762 1370.29 28.9395 1371.03 28.9395C1371.03 29.6762 1370.29 30.4128 1371.03 30.4128L1371.77 29.6762V28.9395C1372.5 27.4662 1372.5 25.2562 1376.18 23.7829C1376.18 23.0463 1376.18 23.0463 1376.18 22.3096C1376.18 21.573 1378.38 20.8363 1379.12 21.573C1379.86 20.8363 1381.33 21.573 1382.06 20.8363C1382.06 20.0997 1382.06 19.363 1383.53 18.6264C1384.27 18.6264 1385 20.0997 1386.48 18.6264C1386.48 18.6264 1385.74 17.153 1387.21 17.8897C1387.95 17.8897 1387.95 18.6264 1387.95 18.6264C1387.95 19.363 1388.68 20.0997 1388.68 20.0997C1389.42 20.0997 1389.42 20.8363 1390.15 20.0997C1390.89 18.6263 1390.89 20.0997 1391.62 20.0997C1393.1 20.0997 1393.1 19.363 1393.1 18.6264C1393.1 17.8897 1392.36 17.8897 1393.1 17.8897C1393.83 17.8897 1394.57 17.8897 1394.57 18.6264L1395.3 19.363C1395.3 19.363 1396.04 19.363 1396.04 20.0997C1397.51 20.0997 1398.24 20.8363 1398.98 21.573C1399.72 22.3096 1399.72 22.3096 1400.45 22.3096C1400.45 21.573 1401.19 21.573 1401.92 21.573C1402.66 20.8363 1403.39 20.8363 1403.39 20.0997C1403.39 19.363 1404.13 20.0997 1404.13 20.0997C1404.13 20.0997 1404.86 20.0997 1404.86 20.8363H1405.6H1406.33C1406.33 20.8363 1407.07 20.8363 1407.07 21.573C1407.81 22.3096 1408.54 23.0463 1408.54 23.7829C1408.54 23.7829 1408.54 23.7829 1408.54 24.5196C1409.28 25.2562 1409.28 25.9929 1410.01 26.7295C1410.01 26.7295 1411.48 28.2029 1412.22 28.2029C1412.95 28.2029 1414.43 28.9395 1414.43 28.9395H1416.63C1416.63 28.9395 1415.16 30.4128 1419.57 30.4128C1421.05 29.6762 1421.05 28.2029 1421.05 27.4662C1421.05 26.7295 1421.78 25.9929 1422.52 25.2562C1422.52 24.5196 1422.52 23.7829 1423.25 23.7829C1423.99 22.3096 1425.46 20.8363 1426.19 18.6264C1426.19 18.6264 1426.19 17.8897 1426.93 17.8897C1426.93 17.8897 1426.93 17.8897 1426.93 17.153C1427.67 16.4164 1427.67 16.4164 1429.14 16.4164C1429.87 16.4164 1429.87 16.4164 1430.61 16.4164L1431.34 15.6797C1432.08 14.9431 1432.08 14.2064 1433.55 14.9431C1433.55 14.9431 1434.29 14.9431 1435.02 14.9431C1436.49 14.2064 1437.96 14.9431 1439.43 15.6797C1440.9 16.4164 1442.38 16.4164 1443.85 14.9431C1444.58 14.2064 1446.79 13.4698 1447.52 14.2064C1450.47 14.9431 1451.94 14.2064 1454.14 13.4698C1454.88 14.2064 1456.35 13.4698 1457.82 14.2064C1460.03 13.4698 1460.76 13.4698 1461.5 14.9431C1462.97 14.9431 1462.97 15.6797 1464.44 15.6797C1466.65 15.6797 1466.65 15.6797 1465.91 17.153L1465.18 17.8897C1465.91 17.8897 1465.91 18.6264 1465.18 18.6264L1464.44 19.363C1463.71 20.0997 1464.44 20.8363 1462.97 21.573V22.3096C1462.24 23.7829 1462.24 24.5196 1462.24 25.9929C1462.24 25.9929 1462.97 25.9929 1462.97 26.7295C1463.71 27.4662 1462.24 28.9395 1465.18 28.2029C1465.91 28.2029 1466.65 28.2029 1466.65 28.9395C1468.12 29.6762 1469.59 30.4128 1471.06 29.6762C1471.8 29.6762 1472.53 29.6762 1473.27 29.6762C1473.27 29.6762 1474 29.6762 1474 28.9395C1474.74 28.2029 1476.21 27.4662 1476.21 26.7295C1476.95 25.9929 1476.95 25.9929 1477.68 25.2562C1478.42 25.2562 1478.42 25.2562 1479.15 24.5196C1479.89 23.7829 1480.62 23.7829 1481.36 23.7829C1482.09 23.7829 1482.09 23.7829 1482.83 23.7829C1485.77 23.7829 1489.45 23.0463 1492.39 24.5196C1493.13 24.5196 1493.13 24.5196 1493.86 24.5196C1496.81 24.5196 1499.01 24.5196 1501.95 24.5196C1502.69 24.5196 1503.43 24.5196 1503.43 24.5196C1504.16 23.0463 1505.63 23.0463 1507.1 24.5196C1507.84 25.2562 1509.31 25.2562 1510.78 24.5196C1512.25 24.5196 1512.99 24.5196 1514.46 25.2562C1514.46 25.2562 1514.46 25.2562 1514.46 24.5196C1515.19 23.0463 1516.66 23.7829 1518.14 23.7829C1518.87 23.0463 1520.34 22.3096 1521.81 22.3096C1522.55 22.3096 1524.02 22.3096 1524.76 22.3096C1525.49 20.8363 1526.96 21.573 1528.43 21.573C1529.17 21.573 1530.64 21.573 1531.38 20.8363C1533.58 20.0997 1535.05 20.8363 1537.26 20.8363C1537.26 20.8363 1538 20.8363 1538 20.0997C1538.73 19.363 1540.2 19.363 1540.94 18.6264C1541.67 17.153 1543.14 17.153 1544.61 17.8897C1545.35 17.8897 1546.09 17.8897 1546.09 18.6264C1548.29 18.6264 1550.5 19.363 1552.71 18.6264C1553.44 18.6264 1553.44 18.6263 1554.18 19.363H1554.91C1555.65 19.363 1555.65 20.0997 1555.65 20.0997C1555.65 20.8363 1555.65 20.8363 1555.65 21.573C1555.65 21.573 1555.65 21.573 1555.65 22.3096C1556.38 23.0463 1556.38 23.0463 1556.38 23.7829C1556.38 24.5196 1556.38 24.5196 1556.38 25.2562V25.9929C1556.38 25.9929 1556.38 25.9929 1556.38 26.7295C1557.12 27.4662 1557.12 28.2029 1556.38 28.2029C1555.65 28.2029 1555.65 27.4662 1555.65 27.4662C1555.65 27.4662 1555.65 27.4662 1555.65 26.7295C1555.65 26.7295 1555.65 26.7295 1554.91 26.7295C1554.91 27.4662 1554.91 28.9395 1554.91 29.6762C1555.65 29.6762 1555.65 29.6762 1556.38 30.4128C1557.12 30.4128 1557.12 31.1495 1557.12 31.1495C1557.12 31.1495 1557.85 31.1495 1557.85 31.8861C1560.06 31.8861 1562.27 31.1495 1563 32.6228C1564.47 32.6228 1565.21 32.6228 1566.68 33.3594C1567.42 33.3594 1567.42 33.3594 1568.15 33.3594C1568.89 33.3594 1568.89 32.6228 1569.62 32.6228C1570.36 32.6228 1570.36 33.3594 1570.36 33.3594V34.0961C1570.36 34.0961 1570.36 34.0961 1570.36 34.8327C1570.36 34.8327 1569.62 34.8328 1569.62 35.5694C1569.62 36.3061 1570.36 35.5694 1571.09 36.3061C1571.83 36.3061 1571.83 36.3061 1572.56 37.0427C1572.56 36.3061 1573.3 34.8327 1574.04 34.0961C1574.04 31.1495 1575.51 28.9395 1576.98 26.7295C1576.98 24.5196 1578.45 23.0463 1579.18 20.8363C1579.92 20.0997 1579.92 17.8897 1581.39 17.153C1582.13 16.4164 1582.86 16.4164 1584.33 16.4164C1587.28 16.4164 1590.95 15.6797 1593.9 17.153C1595.37 16.4164 1596.84 17.153 1597.57 17.8897C1598.31 17.8897 1599.78 17.153 1600.52 17.8897C1602.72 18.6263 1605.66 18.6264 1607.87 18.6264C1609.34 17.8897 1611.55 17.8897 1613.02 17.8897L1613.75 18.6264C1613.75 19.363 1614.49 18.6263 1615.23 19.363C1616.7 19.363 1618.17 20.0997 1619.64 20.0997C1620.37 20.0997 1620.37 19.363 1621.11 20.0997C1621.11 20.8363 1621.85 20.8363 1622.58 21.573C1623.32 21.573 1624.79 20.8363 1624.79 20.0997C1624.79 20.0997 1624.79 20.0997 1625.52 19.363C1626.26 18.6263 1626.99 17.8897 1627.73 17.153C1627.73 17.153 1627.73 16.4164 1628.47 16.4164C1629.94 14.2064 1632.88 11.9965 1635.09 9.78649C1636.56 9.04983 1638.03 9.04983 1639.5 9.04983C1640.97 9.04983 1640.23 9.78649 1640.23 10.5231C1642.44 9.78649 1640.23 8.31319 1640.97 7.57653C1641.7 7.57653 1642.44 7.57652 1643.18 8.31317C1644.65 8.31317 1646.12 8.31318 1646.85 9.04983C1649.8 9.04983 1652.74 9.04984 1654.94 10.5231C1655.68 10.5231 1655.68 11.2598 1656.42 11.2598C1657.15 10.5231 1657.15 11.2598 1657.89 11.2598C1658.62 10.5231 1660.09 10.5231 1660.83 10.5231C1661.56 10.5231 1662.3 11.2598 1663.04 10.5231C1665.24 9.78649 1665.98 10.5231 1667.45 11.2598C1668.92 11.9965 1669.66 12.7331 1671.13 13.4698C1671.86 13.4698 1672.6 12.7331 1672.6 12.7331C1673.33 11.2598 1674.8 10.5231 1676.27 10.5231C1676.27 9.78649 1677.01 9.04983 1677.75 9.04983C1677.75 8.31318 1678.48 7.57653 1679.22 7.57653C1679.22 6.10322 1681.42 6.10321 1682.16 5.36656C1682.16 5.36656 1682.16 5.36655 1682.16 4.6299C1682.16 4.6299 1682.89 4.62991 1682.89 3.89326C1685.1 1.68329 1685.1 1.68329 1688.04 3.1566C1688.04 3.1566 1688.78 3.1566 1688.78 3.89326H1689.51C1690.99 3.89326 1691.72 3.89325 1691.72 4.6299C1692.46 4.6299 1693.19 4.6299 1693.93 4.6299C1694.66 5.36655 1696.87 5.36656 1698.34 6.10322C1702.02 6.83987 1705.7 8.31318 1709.37 9.04983C1710.11 9.04983 1711.58 9.78649 1712.32 9.78649C1714.52 11.2598 1716.73 12.7331 1716.73 14.9431V15.6797C1716.73 16.4164 1716.73 17.153 1716.73 17.8897C1716.73 20.0997 1715.99 21.573 1715.99 23.0463C1716.73 23.0463 1716.73 24.5196 1717.46 24.5196C1718.2 23.7829 1716.73 23.0463 1718.2 22.3096C1720.41 21.573 1719.67 23.0463 1719.67 23.0463C1719.67 23.7829 1719.67 24.5196 1718.94 24.5196C1718.2 24.5196 1718.94 25.2562 1718.94 25.2562C1719.67 25.9929 1719.67 25.9929 1719.67 26.7295C1720.41 26.7295 1720.41 26.7295 1721.14 26.7295V25.9929C1721.14 25.2562 1721.14 25.2562 1721.14 24.5196C1721.14 23.7829 1721.88 23.7829 1721.88 23.0463C1721.88 22.3096 1721.88 22.3096 1721.88 21.573C1721.88 20.8363 1722.61 20.8363 1723.35 21.573C1724.08 21.573 1724.08 21.573 1724.82 21.573C1725.56 20.0997 1724.08 17.8897 1725.56 15.6797C1727.03 17.153 1726.29 18.6263 1726.29 20.0997C1727.03 20.8363 1727.03 21.573 1727.76 22.3096C1728.5 21.573 1727.76 20.0997 1728.5 19.363C1729.23 20.0997 1729.23 20.8363 1729.23 20.8363H1729.97C1730.7 20.8363 1730.7 20.0997 1731.44 20.8363C1732.91 22.3096 1734.38 23.7829 1735.12 25.2562C1735.85 25.9929 1736.59 26.7295 1737.32 27.4662C1738.79 27.4662 1739.53 26.7295 1741 27.4662H1742.47V26.7295C1742.47 25.9929 1743.94 26.7296 1744.68 25.9929C1746.15 25.2562 1748.36 25.9929 1749.83 25.2562C1749.09 25.2562 1748.36 25.2562 1747.62 25.2562C1746.89 25.2562 1746.15 25.2562 1746.15 25.2562C1743.94 25.2562 1743.94 24.5196 1744.68 23.7829H1743.94H1743.21C1743.21 23.7829 1743.21 23.0463 1743.94 23.0463H1744.68H1745.41C1745.41 21.573 1746.89 22.3096 1747.62 22.3096C1750.56 21.573 1752.77 21.573 1755.71 22.3096C1756.45 22.3096 1756.45 22.3096 1756.45 22.3096C1756.45 22.3096 1756.45 22.3096 1757.18 22.3096L1757.92 21.573C1760.86 21.573 1763.8 21.573 1766.75 22.3096C1768.22 22.3096 1770.42 22.3096 1771.89 23.0463C1772.63 23.0463 1773.36 23.0463 1774.1 23.0463C1775.57 23.0463 1777.04 23.0463 1777.78 23.7829C1779.98 23.7829 1782.19 23.7829 1784.4 23.7829C1784.4 23.0463 1782.93 23.0463 1782.93 23.0463C1781.46 23.0463 1780.72 23.0463 1779.25 22.3096C1777.04 22.3096 1775.57 21.573 1773.36 21.573C1771.89 21.573 1769.69 21.573 1768.22 20.8363C1766.75 20.8363 1764.54 20.8363 1763.07 20.8363C1762.33 20.8363 1761.6 20.8363 1761.6 20.8363C1760.86 20.8363 1760.13 20.8363 1760.13 20.0997C1760.13 20.0997 1760.86 20.0997 1760.86 19.363C1760.13 19.363 1759.39 19.363 1758.65 20.0997C1757.18 20.0997 1754.98 20.8363 1753.51 20.0997C1753.51 20.0997 1753.51 20.0997 1753.51 19.363C1752.77 19.363 1751.3 19.363 1750.56 19.363C1749.83 19.363 1749.83 19.363 1749.09 18.6264C1747.62 18.6264 1746.15 19.363 1745.41 17.8897C1747.62 17.8897 1749.09 17.8897 1751.3 17.8897C1751.3 17.153 1752.03 17.153 1752.77 17.153C1752.77 17.153 1752.77 17.153 1753.51 17.153C1753.51 17.153 1753.51 17.153 1752.77 17.153C1752.77 17.153 1752.03 17.153 1752.03 16.4164C1751.3 16.4164 1749.83 15.6797 1749.09 15.6797H1748.36C1747.62 15.6797 1748.36 14.9431 1748.36 14.9431C1749.83 14.9431 1751.3 14.9431 1752.77 14.9431C1755.71 14.9431 1759.39 14.9431 1762.33 15.6797C1763.07 15.6797 1763.07 15.6797 1763.8 15.6797H1764.54C1766.01 16.4164 1766.75 15.6797 1768.22 15.6797H1768.95C1770.42 15.6797 1772.63 15.6797 1774.1 15.6797C1774.84 15.6797 1776.31 15.6797 1777.04 15.6797C1779.98 15.6797 1782.19 16.4164 1785.13 16.4164C1787.34 16.4164 1789.55 16.4164 1791.75 17.153C1793.96 17.153 1795.43 17.153 1797.64 17.8897H1798.37C1798.37 17.8897 1799.11 17.8897 1799.11 18.6264C1799.84 19.363 1799.84 19.363 1800.58 18.6264C1802.05 18.6264 1803.52 19.363 1804.99 19.363L1804.26 18.6264C1802.79 17.8897 1801.32 17.8897 1799.84 17.153C1801.32 16.4164 1802.79 17.8897 1804.26 17.8897C1806.46 18.6263 1809.41 18.6263 1811.61 19.363C1812.35 19.363 1814.55 19.363 1814.55 20.0997H1815.29C1816.76 20.0997 1817.5 20.0997 1818.97 20.0997C1819.7 20.0997 1821.17 20.0997 1821.91 20.8363C1824.85 21.573 1827.79 22.3096 1830 23.0463C1830.74 23.0463 1831.47 23.7829 1831.47 23.7829C1833.68 23.7829 1835.15 23.7829 1836.62 24.5196C1837.36 25.2562 1838.83 25.9929 1840.3 25.2562C1838.83 23.7829 1837.36 23.0463 1835.89 21.573C1835.15 21.573 1835.15 21.573 1835.15 20.8363C1833.68 20.0997 1832.21 19.363 1831.47 18.6264C1830 17.8897 1829.27 17.153 1828.53 16.4164C1828.53 16.4164 1827.79 16.4164 1827.79 15.6797H1828.53C1829.27 14.9431 1830.74 14.9431 1832.21 14.9431C1832.94 14.9431 1832.94 14.2064 1833.68 14.9431C1834.41 15.6797 1835.88 15.6797 1836.62 15.6797C1838.09 15.6797 1839.56 14.9431 1841.03 16.4164C1844.71 15.6797 1847.65 15.6797 1851.33 16.4164C1852.8 17.153 1853.54 16.4164 1855.01 16.4164C1855.74 16.4164 1855.74 16.4164 1856.48 16.4164C1861.63 17.153 1866.78 17.153 1870.45 20.0997C1874.13 20.0997 1877.81 20.0997 1880.75 21.573C1881.49 21.573 1882.22 21.573 1882.96 21.573C1885.17 20.0997 1885.17 20.8363 1886.64 22.3096C1887.37 22.3096 1888.84 22.3096 1889.58 22.3096C1891.79 22.3096 1893.26 23.0463 1893.99 24.5196C1895.46 25.2562 1896.93 25.9929 1898.41 27.4662C1899.88 28.9395 1902.82 30.4128 1903.55 31.8861C1905.02 31.8861 1905.02 32.6228 1905.02 33.3594C1905.76 33.3594 1905.76 34.0961 1906.5 34.8327C1906.5 34.8327 1907.23 34.8328 1907.23 35.5694C1909.44 37.0427 1909.44 38.516 1910.91 39.9893C1910.91 40.726 1911.64 41.4626 1910.91 42.1993C1910.91 42.936 1911.64 42.936 1911.64 43.6726H1912.38C1913.12 43.6726 1913.85 42.936 1914.59 43.6726C1919 41.4626 1919 42.1993 1918.26 42.1993ZM470.004 20.8363C470.004 20.8363 470.74 20.8363 470.004 20.8363C470.74 20.8363 470.004 20.8363 470.004 20.8363ZM503.103 15.6797C503.103 16.4164 503.103 15.6797 503.103 15.6797V15.6797ZM549.442 29.6762C549.442 29.6762 549.442 28.9395 549.442 29.6762C549.442 28.9395 549.442 29.6762 549.442 29.6762ZM557.532 23.7829C557.532 23.0463 557.532 23.0463 557.532 23.7829C557.532 23.0463 557.532 23.0463 557.532 23.7829ZM698.019 18.6264C697.283 18.6264 697.283 18.6264 698.019 18.6264C697.283 18.6264 697.283 18.6264 698.019 18.6264ZM1431.34 15.6797C1431.34 16.4164 1431.34 15.6797 1431.34 15.6797V15.6797ZM1477.68 29.6762C1477.68 29.6762 1477.68 28.9395 1477.68 29.6762C1477.68 28.9395 1477.68 29.6762 1477.68 29.6762ZM1485.77 23.7829C1485.77 23.0463 1485.77 23.0463 1485.77 23.7829C1485.77 23.0463 1485.77 23.0463 1485.77 23.7829Z" fill="white"/>
</svg>
