<svg width="36" height="36" viewBox="0 0 36 36" fill="none" xmlns="http://www.w3.org/2000/svg">
<path d="M18 34C26.8366 34 34 26.8366 34 18C34 9.16344 26.8366 2 18 2C9.16344 2 2 9.16344 2 18C2 26.8366 9.16344 34 18 34Z" fill="#FFCFCF" stroke="#FF4545" stroke-width="3" stroke-linecap="round" stroke-linejoin="round"/>
<path d="M23.5139 12.2353L23.6485 12.3515C24.0746 12.7775 24.1133 13.4442 23.7647 13.9139L23.6485 14.0485L19.6976 18L23.6485 21.9515C24.0746 22.3775 24.1133 23.0442 23.7647 23.5139L23.6485 23.6485C23.2226 24.0746 22.5559 24.1133 22.0861 23.7647L21.9515 23.6485L18 19.6976L14.0485 23.6485C13.6225 24.0746 12.9558 24.1133 12.4861 23.7647L12.3515 23.6485C11.9254 23.2226 11.8867 22.5559 12.2353 22.0861L12.3515 21.9515L16.3024 18L12.3515 14.0485C11.9254 13.6225 11.8867 12.9558 12.2353 12.4861L12.3515 12.3515C12.7775 11.9254 13.4442 11.8867 13.9139 12.2353L14.0485 12.3515L18 16.3024L21.9515 12.3515C22.3775 11.9254 23.0442 11.8867 23.5139 12.2353Z" fill="#F74153"/>
</svg>
