<svg width="160" height="28" viewBox="0 0 160 28" fill="none" xmlns="http://www.w3.org/2000/svg">
<path d="M9.71165 18.7904C9.86293 19.2019 10.0324 19.6073 10.2139 20.0067C10.7162 21.1202 11.4242 22.1247 12.2049 23.0567C12.931 23.922 13.8448 24.6421 14.7828 25.2594C15.2366 25.5559 15.7208 25.798 16.217 26.0158C16.8524 26.2942 17.4999 26.5242 18.1716 26.6996C19.2851 26.9841 20.453 27.0264 21.5907 26.9114C22.8373 26.7904 24.0536 26.506 25.2155 26.0461C26.2927 25.6164 27.3214 25.0778 28.3078 24.4727C28.3683 24.4364 28.4349 24.394 28.4954 24.3577C28.6346 24.509 28.7798 24.6603 28.9311 24.8055C29.3547 25.2049 29.8449 25.5559 30.329 25.8827C30.8918 26.2579 31.5272 26.5242 32.1505 26.7602C32.7436 26.9841 33.379 27.0748 34.0023 27.1596C34.565 27.2322 35.1218 27.2564 35.6906 27.2382C36.3381 27.214 36.9856 27.093 37.615 26.9538C38.2867 26.8086 38.9342 26.5726 39.5757 26.3305C41.6332 25.5499 43.4849 24.3396 45.1612 22.9235C45.3851 23.335 45.6635 23.7102 45.9539 24.0733C46.2807 24.4848 46.6317 24.8539 47.0371 25.1868C47.5394 25.6043 48.078 25.9311 48.6771 26.1974C49.2036 26.4273 49.7361 26.6149 50.2989 26.736C50.8617 26.863 51.4547 26.9054 52.0296 26.8933C52.6287 26.8812 53.2338 26.7723 53.8208 26.6512C54.4381 26.5302 55.0432 26.3366 55.6242 26.1005C57.839 25.211 59.7694 23.7707 61.361 22.0037C61.603 21.7374 61.833 21.4651 62.0629 21.1867C62.2929 21.4591 62.535 21.7193 62.777 21.9734C63.1643 22.3728 63.594 22.7359 64.0357 23.0748C64.5925 23.5045 65.1674 23.8918 65.7846 24.2367C66.3232 24.5332 66.892 24.7692 67.4609 24.9931C68.0418 25.2291 68.6409 25.3562 69.2581 25.4288C70.529 25.5801 71.7937 25.4349 73.0464 25.2049C74.1901 24.9931 75.2733 24.5635 76.3384 24.1157C77.47 23.6376 78.529 23.0082 79.5275 22.2942C80.4171 21.6588 81.234 20.9507 81.9965 20.1701C82.0933 20.3819 82.1901 20.5937 82.287 20.7994C82.5714 21.3925 82.9405 21.925 83.346 22.4394C83.6667 22.8509 84.0177 23.2382 84.3989 23.6013C84.7983 23.9825 85.2522 24.3154 85.7121 24.624C86.1418 24.9145 86.6138 25.1444 87.0918 25.3502C87.703 25.6164 88.3142 25.8161 88.9678 25.9493C90.1055 26.1853 91.2674 26.2155 92.4111 26.0703C93.0223 25.9916 93.6214 25.8827 94.2205 25.7133C94.8982 25.5257 95.5518 25.2291 96.1933 24.9326C97.2644 24.4364 98.2205 23.7526 99.1403 23.0203C99.8544 22.4515 100.514 21.81 101.131 21.1323C101.24 21.2715 101.355 21.4167 101.464 21.5559C101.815 21.9976 102.245 22.3668 102.693 22.7117C103.624 23.4137 104.702 23.916 105.827 24.2004C106.408 24.3517 107.031 24.4061 107.631 24.4485C108.193 24.4848 108.756 24.4485 109.313 24.3819C109.93 24.3033 110.529 24.1822 111.128 24.0188C111.776 23.8373 112.405 23.5892 113.028 23.3411C114.118 22.9054 115.159 22.3849 116.157 21.7677C117.252 21.0899 118.257 20.2548 119.201 19.3834C119.619 18.9961 120.024 18.5967 120.411 18.1792C120.526 18.282 120.641 18.3849 120.762 18.4817C121.216 18.8509 121.688 19.1595 122.209 19.4197C122.729 19.6799 123.292 19.8857 123.842 20.0551C124.405 20.2306 124.998 20.2972 125.585 20.3698C126.257 20.4485 126.935 20.394 127.594 20.2911C128.121 20.2125 128.623 20.0914 129.125 19.9159C129.67 19.7283 130.203 19.4802 130.711 19.214C131.189 18.9658 131.631 18.6633 132.066 18.3425C132.617 17.931 133.138 17.4893 133.628 17.0112C133.718 16.9204 133.809 16.8297 133.9 16.7389C133.93 16.7752 133.96 16.8115 133.991 16.8478C134.378 17.3319 134.844 17.7616 135.322 18.161C135.776 18.5362 136.254 18.869 136.774 19.1474C137.047 19.2926 137.337 19.3955 137.622 19.5165C137.858 19.6134 138.106 19.6799 138.348 19.7525C138.911 19.9099 139.516 19.9704 140.097 19.9946C140.805 20.0249 141.531 19.8978 142.227 19.7707C142.79 19.6678 143.334 19.4742 143.855 19.2442C144.206 19.0869 144.526 18.8993 144.835 18.6875C144.992 18.8206 145.156 18.9477 145.319 19.0687C145.694 19.3471 146.082 19.5952 146.487 19.8252C146.935 20.0793 147.425 20.273 147.903 20.4666C148.926 20.8902 150.009 21.0476 151.098 21.1867C152.018 21.3078 152.968 21.3078 153.9 21.2715C154.433 21.2533 154.959 21.1867 155.486 21.1262C156.339 21.0294 157.174 20.8842 157.985 20.5997C158.197 20.5211 158.402 20.4364 158.602 20.3456C158.862 20.2064 159.08 20.0128 159.31 19.8312C159.401 19.7102 159.498 19.5891 159.589 19.4681C159.74 19.2987 159.843 19.099 159.897 18.8751C159.946 18.627 159.976 18.3728 160 18.1247C160 17.81 159.921 17.5195 159.764 17.2472C159.54 16.8599 159.159 16.5695 158.729 16.4484C158.281 16.3274 157.791 16.3879 157.392 16.6239C157.18 16.7449 156.98 16.9265 156.835 17.1383C156.75 17.1625 156.666 17.1867 156.581 17.2109C156.169 17.3259 155.746 17.4106 155.322 17.4832C155.044 17.5135 154.772 17.5498 154.493 17.5801C153.906 17.6527 153.307 17.6527 152.72 17.6466C152.157 17.6466 151.601 17.6103 151.044 17.5498C150.663 17.4893 150.281 17.4167 149.9 17.3259C149.537 17.2351 149.18 17.1141 148.829 16.9749C148.333 16.7449 147.855 16.4787 147.407 16.1701C147.54 15.9885 147.673 15.8009 147.8 15.6133C148.369 14.7782 148.853 13.8826 149.337 12.993C149.767 12.2063 150.154 11.3954 150.493 10.5603C150.753 9.91887 151.001 9.26531 151.044 8.56333C151.068 8.11552 151.014 7.67982 150.929 7.23806C150.874 6.94153 150.735 6.64501 150.614 6.37269C150.517 6.15484 150.421 5.94909 150.306 5.74334C150.07 5.30158 149.779 4.90218 149.47 4.50884C149.198 4.15785 148.908 3.82502 148.569 3.53455C148.175 3.20171 147.746 3.00201 147.262 2.83257C147.183 2.81442 147.098 2.79626 147.02 2.78416C146.79 2.74785 146.566 2.71759 146.33 2.70549C146.021 2.67523 145.694 2.76601 145.392 2.81442C145.168 2.86888 144.95 2.94755 144.744 3.05043C144.466 3.18356 144.224 3.34695 143.988 3.5527C143.637 3.86133 143.364 4.22442 143.086 4.59961C142.808 4.96875 142.614 5.39235 142.433 5.81596C142.184 6.37269 141.979 6.94153 141.809 7.52853C141.664 8.03685 141.591 8.56333 141.525 9.08376C141.452 9.67076 141.416 10.2456 141.428 10.8387C141.434 11.3591 141.507 11.8856 141.579 12.406C141.658 12.9446 141.761 13.4771 141.912 14.0036C142.057 14.518 142.281 15.0021 142.487 15.4862C142.572 15.6799 142.663 15.8614 142.759 16.043C142.626 16.1216 142.499 16.1943 142.36 16.2608C141.864 16.4363 141.361 16.5574 140.841 16.6421C140.405 16.6844 139.982 16.6905 139.546 16.6542C139.165 16.5816 138.796 16.4847 138.426 16.3516C138.057 16.1761 137.718 15.9643 137.38 15.7283C136.883 15.3168 136.43 14.869 136.018 14.3728C135.976 14.3122 135.933 14.2517 135.891 14.1912C136.544 13.223 137.095 12.1761 137.603 11.1231C138.203 9.88861 138.717 8.59964 139.201 7.31068C139.377 6.83866 139.534 6.36664 139.667 5.87647C139.818 5.31368 139.836 4.71459 139.746 4.13969C139.661 3.61927 139.449 3.1533 139.177 2.70549C139.032 2.45738 138.808 2.23348 138.602 2.03378C138.312 1.76146 137.967 1.61622 137.597 1.47704C137.361 1.38627 137.083 1.38627 136.835 1.36811C136.744 1.37416 136.653 1.38022 136.563 1.38627C136.345 1.40442 136.133 1.44073 135.927 1.48914C135.649 1.54361 135.377 1.70094 135.122 1.82197C134.874 1.943 134.644 2.1306 134.433 2.30004C134.239 2.45738 134.069 2.61472 133.9 2.79626C133.706 3.00807 133.543 3.24407 133.374 3.47403C132.992 3.98841 132.75 4.59961 132.514 5.1866C132.308 5.70098 132.181 6.25166 132.054 6.79025C131.921 7.37724 131.818 7.97634 131.746 8.57544C131.679 9.13822 131.643 9.70101 131.643 10.2699C131.649 10.9476 131.74 11.6193 131.849 12.285C131.933 12.8054 132.078 13.3259 132.26 13.8281C131.715 14.4635 131.122 15.0445 130.475 15.577C129.87 16.0248 129.234 16.4061 128.55 16.7207C128.03 16.9204 127.504 17.0657 126.953 17.1686C126.469 17.2109 125.991 17.2109 125.501 17.1686C124.926 17.0657 124.375 16.9144 123.824 16.7086C123.443 16.5271 123.08 16.3274 122.729 16.0853C122.608 15.9885 122.493 15.8856 122.384 15.7828C122.826 15.1837 123.243 14.5664 123.631 13.925C124.23 12.9325 124.684 11.8553 125.095 10.7661C125.537 9.59814 125.858 8.39389 126.069 7.16544C126.172 6.5845 126.227 5.9975 126.215 5.41051C126.203 4.84772 126.106 4.27888 125.991 3.73424C125.942 3.49824 125.852 3.27433 125.761 3.05043C125.664 2.80232 125.561 2.57236 125.428 2.3424C125.386 2.28794 125.349 2.23348 125.307 2.17901C125.192 2.00957 125.059 1.85223 124.908 1.71305C124.744 1.58597 124.581 1.45888 124.417 1.33785C124.236 1.25313 124.048 1.16841 123.861 1.0958C123.576 1.04133 123.292 0.998971 123.001 0.99292C122.917 1.00502 122.832 1.01107 122.753 1.02318C122.547 1.03528 122.348 1.07159 122.148 1.13816C121.888 1.21077 121.622 1.36206 121.392 1.5073C121.15 1.65858 120.932 1.85828 120.72 2.04588C120.308 2.40897 119.976 2.88098 119.667 3.32879C119.28 3.88553 119.025 4.53909 118.771 5.16845C118.342 6.23956 118.172 7.4196 118.015 8.55728C117.839 9.82809 117.773 11.0929 117.839 12.3697C117.9 13.465 118.136 14.518 118.553 15.5225C117.658 16.5089 116.69 17.4227 115.643 18.2578C114.553 19.0627 113.385 19.7344 112.151 20.2851C111.134 20.7026 110.1 21.0718 109.01 21.2715C108.345 21.338 107.685 21.3441 107.019 21.2836C106.523 21.1928 106.045 21.0657 105.567 20.8902C105.137 20.6905 104.732 20.4606 104.345 20.1882C103.988 19.8917 103.673 19.5649 103.376 19.2079C103.261 19.0445 103.146 18.8811 103.037 18.7117C103.298 18.3425 103.552 17.9673 103.8 17.5922C104.466 16.5755 105.059 15.4983 105.579 14.403C106.087 13.3319 106.463 12.2124 106.68 11.0505C106.789 10.4574 106.844 9.8523 106.85 9.2532C106.856 8.56938 106.711 7.87346 106.517 7.2199C106.438 6.95969 106.317 6.71158 106.208 6.45742C106.13 6.27587 106.033 6.11853 105.918 5.96119C105.767 5.75544 105.634 5.5981 105.44 5.44076C105.24 5.27737 104.956 5.06557 104.69 5.01716C104.435 4.96875 104.193 4.93244 103.939 4.93244C103.697 4.93244 103.419 4.99901 103.189 5.07162C102.578 5.26527 102.075 5.71308 101.658 6.1851C100.883 7.05046 100.441 8.10947 100.024 9.18058C99.5579 10.3848 99.3461 11.6799 99.1948 12.9567C99.0496 14.161 99.104 15.3894 99.2916 16.5876C99.3824 17.1625 99.5095 17.7253 99.685 18.282C98.8559 19.2624 97.9421 20.158 96.9436 20.9628C96.1327 21.5619 95.2734 22.0642 94.3597 22.4757C93.6456 22.7541 92.9194 22.9598 92.163 23.0869C91.4126 23.1656 90.6622 23.1716 89.9118 23.0869C89.3248 22.984 88.7681 22.8327 88.2174 22.6209C87.6909 22.3728 87.2008 22.0884 86.7348 21.7495C86.2809 21.3683 85.8694 20.9568 85.4882 20.4969C85.0464 19.8857 84.6954 19.2321 84.3868 18.5422C84.2779 18.2699 84.1811 17.9976 84.0903 17.7253C84.2719 17.4893 84.4413 17.2533 84.6168 17.0173C85.2946 16.0793 85.9057 15.0868 86.4685 14.0762C87.0737 12.9809 87.5639 11.7888 87.818 10.5603C87.933 10.0036 87.9693 9.42264 87.9814 8.85381C87.9935 8.2426 87.9027 7.63746 87.812 7.03836C87.7635 6.74789 87.703 6.46952 87.6123 6.19115C87.5275 5.92488 87.4005 5.67072 87.2794 5.42261C87.2068 5.32579 87.1282 5.22896 87.0555 5.13214C86.9406 4.9748 86.7953 4.84772 86.6259 4.74484C86.3294 4.5754 86.0328 4.45437 85.6939 4.39991C85.4035 4.3515 85.1796 4.33334 84.8952 4.36965C84.5986 4.40596 84.3626 4.45437 84.0903 4.55725C83.8301 4.65407 83.5941 4.76905 83.3641 4.91429C83.1281 5.05952 82.8982 5.27132 82.6924 5.46497C82.6319 5.53154 82.5774 5.5981 82.5169 5.65862C82.3898 5.82201 82.2628 5.9854 82.1357 6.14879C81.9904 6.36059 81.8513 6.57844 81.7242 6.8084C81.585 7.06256 81.47 7.34093 81.3671 7.6072C81.2401 7.93398 81.1311 8.26076 81.0283 8.59359C80.6954 9.72522 80.532 10.9113 80.4655 12.0853C80.3989 13.3622 80.5623 14.6451 80.7681 15.8977C80.8104 16.1701 80.8649 16.4424 80.9193 16.7147C80.1024 17.6648 79.2249 18.5604 78.2446 19.3531C77.1493 20.164 75.9813 20.8418 74.7347 21.3925C74.2627 21.5801 73.7907 21.7435 73.3066 21.8948C72.7256 22.0703 72.1326 22.1913 71.5335 22.2881C70.8497 22.3668 70.1719 22.391 69.4881 22.3305C68.9616 22.2336 68.4654 22.0763 67.9692 21.8827C67.2006 21.5317 66.4745 21.1141 65.7846 20.6179C65.125 20.0793 64.5259 19.4923 63.9873 18.8327C63.9631 18.7964 63.9328 18.7601 63.9086 18.7238C64.4896 17.8645 65.01 16.9689 65.4941 16.049C66.0327 15.0142 66.4987 13.9431 66.9102 12.8538C67.122 12.3032 67.2672 11.7404 67.3701 11.1594C67.4246 10.8508 67.4548 10.5361 67.4669 10.2214C67.4851 9.82809 67.4125 9.4408 67.358 9.05956C67.2854 8.52097 67.0131 7.99449 66.7891 7.50432C66.6742 7.25016 66.5108 7.0202 66.3413 6.79025C66.1598 6.54819 65.9782 6.33639 65.7604 6.13063C65.3247 5.71913 64.768 5.3621 64.1507 5.34394C63.8663 5.33184 63.594 5.38025 63.3095 5.42261C63.1462 5.45892 62.9888 5.51338 62.8315 5.586C62.6439 5.65257 62.4623 5.73729 62.2868 5.84016C62.0387 5.9733 61.8209 6.17299 61.603 6.34849C61.4033 6.50583 61.2399 6.71158 61.0766 6.90523C60.895 7.12913 60.7316 7.35909 60.5743 7.60115C60.4169 7.84926 60.308 8.13368 60.1991 8.39994C59.7331 9.54973 59.5455 10.8024 59.4245 12.0248C59.3095 13.229 59.4184 14.4272 59.5879 15.6194C59.7271 16.5695 60.0115 17.4893 60.3806 18.3728C59.9328 18.9295 59.4729 19.4742 58.9888 20.0067C58.4805 20.5634 57.9177 21.0718 57.3307 21.5498C56.4956 22.1671 55.6121 22.6875 54.668 23.1172C53.954 23.3895 53.2217 23.5831 52.4714 23.7042C52.0599 23.7405 51.6544 23.7465 51.2429 23.7102C50.8314 23.6315 50.4381 23.5226 50.0447 23.3774C49.7179 23.2261 49.4154 23.0506 49.1188 22.8509C48.8163 22.5907 48.544 22.3063 48.2837 22.0037C48.0417 21.6588 47.8299 21.3078 47.6483 20.9265C47.606 20.8176 47.5636 20.7087 47.5273 20.5997C47.7512 20.3395 47.9751 20.0793 48.193 19.8131C48.5863 19.3289 48.9615 18.8267 49.3125 18.3123C49.6816 17.7737 50.0024 17.2049 50.3231 16.6421C51.1521 15.1655 51.8178 13.6163 52.4956 12.0671C52.7618 11.4559 53.0281 10.8447 53.2702 10.2214C53.4759 9.70101 53.6756 9.13217 53.7059 8.56938C53.7422 7.90372 53.5425 7.2199 53.137 6.69342C53.0523 6.57844 52.9615 6.46952 52.8768 6.35454C52.7255 6.20325 52.5621 6.06407 52.3806 5.94304C52.1506 5.7857 51.8965 5.65862 51.6302 5.5739C51.3579 5.48918 51.0795 5.43471 50.7951 5.41656C50.4925 5.3984 50.2021 5.42866 49.8995 5.48313C49.3246 5.586 48.786 5.80991 48.2898 6.11248C48.0296 6.26982 47.7996 6.47557 47.5636 6.66922C47.2974 6.88707 47.0674 7.14728 46.8435 7.40145C46.0931 8.2426 45.4274 9.16848 44.9736 10.1972C44.7376 10.7358 44.55 11.2805 44.3987 11.8493C44.2353 12.4605 44.1445 13.0898 44.0538 13.7132C43.8783 14.8992 43.7996 16.0793 43.8359 17.2775C43.8541 17.8584 43.8964 18.4454 43.9751 19.0264C43.382 19.6073 42.7648 20.158 42.1112 20.6784C41.0341 21.4772 39.8903 22.1852 38.6679 22.7359C37.8086 23.0748 36.9372 23.3471 36.0235 23.5105C35.4486 23.565 34.8797 23.5589 34.3048 23.4984C33.8752 23.4197 33.4576 23.3108 33.0461 23.1656C32.6044 22.9538 32.1929 22.7057 31.7935 22.4212C31.6543 22.3002 31.5212 22.1792 31.388 22.0521C32.2352 21.2594 32.9614 20.3637 33.6573 19.4439C34.4259 18.4273 35.0552 17.3259 35.5454 16.1519C35.7632 15.6194 35.9448 15.0747 36.084 14.518C36.2413 13.8947 36.3139 13.2411 36.3684 12.6057C36.4229 11.9703 36.326 11.3289 36.2111 10.7056C36.1626 10.4393 36.0658 10.1791 35.969 9.92492C35.8177 9.51342 35.6241 9.13217 35.3881 8.76303C35.2126 8.49072 34.9947 8.2426 34.7829 7.99449C34.5893 7.77059 34.3048 7.53458 34.0628 7.38329C33.615 7.09887 33.1127 6.91128 32.5862 6.83866C32.2534 6.79025 31.969 6.75999 31.6361 6.75999C31.3033 6.76604 30.9705 6.83261 30.6437 6.88707C30.565 6.90523 30.4803 6.92943 30.4016 6.95364C30.1777 7.03836 29.9599 7.12913 29.736 7.22595C29.3668 7.4196 29.0219 7.66166 28.7072 7.93398C28.5015 8.10947 28.3139 8.29102 28.1263 8.49072C27.9024 8.73277 27.7148 9.01114 27.5211 9.27741C27.1641 9.76758 26.922 10.3485 26.6981 10.9113C26.4863 11.4257 26.3108 11.9522 26.1656 12.4908C25.972 13.2109 25.8872 13.9673 25.7965 14.7056C25.6512 15.8917 25.6391 17.0959 25.7904 18.282C25.8691 18.9174 25.9841 19.5407 26.1414 20.164C26.2624 20.6421 26.4379 21.1081 26.6376 21.5619C25.8388 22.0824 25.0037 22.5483 24.1323 22.9417C23.2548 23.2866 22.3592 23.5287 21.4273 23.6739C20.7858 23.7405 20.1565 23.7526 19.515 23.6981C18.801 23.5771 18.1111 23.3774 17.4333 23.1111C16.7919 22.8146 16.1988 22.4576 15.63 22.0461C15.0309 21.5559 14.4923 21.0173 14.0082 20.4182C13.4817 19.6981 13.04 18.9356 12.6708 18.1247C12.5558 17.8403 12.453 17.5498 12.3622 17.2593C14.2745 16.0793 16.0899 14.7419 17.7904 13.2774C18.2321 12.8962 18.6678 12.4968 19.0975 12.0974C19.5211 11.698 19.9144 11.2744 20.3199 10.8629C20.683 10.4938 21.0582 10.1307 21.3486 9.69496C21.6875 9.18664 21.9417 8.64805 22.1111 8.06106C22.2564 7.57089 22.2382 7.03231 22.1716 6.53003C22.099 6.00355 21.9719 5.50128 21.7359 5.02321C21.2458 4.01867 20.4833 3.20777 19.5211 2.64498C19.279 2.50579 18.9886 2.37871 18.7223 2.28794C18.4621 2.19717 18.22 2.1306 17.9477 2.08219C17.3728 1.97931 16.8161 2.00352 16.2412 2.08219C15.6966 2.16086 15.1943 2.30609 14.692 2.53605C14.099 2.80837 13.5604 3.15935 13.0521 3.57085C11.2366 5.02926 10.0687 7.1957 9.33646 9.37423C8.96126 10.4938 8.82208 11.698 8.75551 12.8659C8.6829 14.1489 8.84023 15.4439 9.08229 16.7026C9.13071 16.9628 9.19122 17.217 9.25779 17.4772C7.84174 18.3062 6.38334 19.0506 4.87652 19.692C4.35004 19.9038 3.81751 20.0975 3.27288 20.2609C2.78876 20.4061 2.31069 20.5634 1.81447 20.6603C1.63293 20.6724 1.46954 20.6784 1.29405 20.6663C1.27589 20.6603 1.25169 20.6542 1.23353 20.6421C1.22748 20.6421 1.22748 20.6361 1.22143 20.6361C1.28194 20.5695 1.34246 20.5029 1.40903 20.4485C1.65108 20.273 1.88709 20.1035 2.1231 19.922C2.3349 19.7586 2.44988 19.4984 2.29859 19.2503C2.17756 19.0385 1.83868 18.9114 1.62688 19.0748C1.35456 19.2805 1.05804 19.4621 0.797826 19.6799C0.658642 19.7828 0.543664 19.8978 0.434738 20.0309C0.301605 20.1822 0.192679 20.3516 0.0716494 20.515C-0.04938 20.6784 -0.0130712 20.9991 0.150319 21.1262C0.289503 21.2352 0.422635 21.3622 0.56787 21.4651C0.622334 21.5014 0.676797 21.5438 0.73126 21.5801C0.828084 21.6224 0.930959 21.6648 1.02778 21.7072C1.24564 21.7435 1.43323 21.7616 1.65108 21.7737C1.86289 21.7798 2.09889 21.7314 2.30464 21.7011C2.56486 21.6648 2.82507 21.5861 3.07923 21.5196C3.33945 21.453 3.59966 21.3804 3.85987 21.3138C4.51948 21.1383 5.15489 20.8902 5.79029 20.6421C7.15793 20.0914 8.45294 19.4742 9.71165 18.7904ZM144.968 9.2532C145.089 8.52702 145.289 7.8311 145.555 7.14123C145.706 6.82656 145.87 6.53003 146.063 6.24561C146.13 6.16694 146.203 6.09433 146.275 6.02171C146.299 6.01566 146.324 6.0096 146.348 6.00355C146.372 6.00355 146.396 6.00355 146.414 6.00355C146.469 6.01566 146.523 6.03381 146.578 6.05197C146.584 6.05802 146.59 6.05802 146.596 6.06407C146.868 6.31218 147.122 6.56634 147.358 6.84471C147.576 7.14728 147.77 7.46196 147.945 7.79479C147.988 7.91582 148.024 8.03685 148.054 8.15788C148.06 8.2426 148.06 8.33338 148.06 8.4181C148.006 8.65411 147.933 8.87801 147.843 9.10192C147.492 9.8523 147.092 10.5785 146.663 11.2865C146.245 11.9703 145.84 12.6602 145.398 13.3259C145.216 12.7873 145.077 12.2366 144.98 11.6677C144.896 10.8568 144.889 10.0581 144.968 9.2532ZM137.023 4.36965C137.016 4.35755 137.004 4.34545 136.998 4.33334V4.32729C137.004 4.33939 137.016 4.35755 137.023 4.36965ZM136.908 4.20626C136.908 4.20626 136.908 4.21231 136.908 4.20626C136.938 4.24862 136.968 4.28493 136.998 4.32729V4.33334C136.968 4.29703 136.944 4.26072 136.914 4.22442C136.914 4.23047 136.92 4.23047 136.92 4.23652C136.92 4.23047 136.914 4.23047 136.914 4.22442C136.895 4.20021 136.877 4.176 136.859 4.15785C136.877 4.176 136.889 4.19416 136.908 4.20626C136.908 4.21231 136.908 4.20626 136.908 4.20626ZM134.693 8.4181C134.832 7.49222 135.026 6.56634 135.358 5.69493C135.51 5.38025 135.679 5.07768 135.879 4.78115C136.006 4.62987 136.139 4.49068 136.29 4.35755C136.399 4.28493 136.508 4.21836 136.623 4.1518C136.672 4.13364 136.726 4.12154 136.774 4.10944C136.787 4.10944 136.799 4.10944 136.811 4.10944C136.817 4.11549 136.817 4.12154 136.823 4.12154C136.871 4.20021 136.92 4.27888 136.962 4.3636C136.98 4.41201 136.992 4.46042 137.004 4.50278C137.01 4.61776 137.01 4.73274 137.004 4.84772C136.908 5.27132 136.756 5.68282 136.587 6.08827C136.23 6.90523 135.867 7.72218 135.485 8.52702C135.213 9.10797 134.917 9.68286 134.614 10.2456C134.608 10.0762 134.602 9.90071 134.602 9.73127C134.602 9.29556 134.644 8.85986 134.693 8.4181ZM120.877 8.75698C121.022 7.74638 121.21 6.75394 121.573 5.79175C121.779 5.34394 122.009 4.92034 122.293 4.52094C122.463 4.32124 122.644 4.13364 122.838 3.9521C122.892 3.91579 122.953 3.87948 123.013 3.84317C123.038 3.87948 123.056 3.91579 123.074 3.95815C123.165 4.22442 123.231 4.49673 123.28 4.76905C123.316 5.22291 123.322 5.66467 123.286 6.11853C123.05 7.57694 122.584 8.98694 122.027 10.3485C121.755 10.9658 121.452 11.5649 121.113 12.1519C121.022 12.3092 120.926 12.4665 120.829 12.6239C120.69 11.3349 120.726 10.0459 120.877 8.75698ZM103.867 7.75243C103.854 7.76454 103.836 7.77664 103.824 7.78269C103.836 7.77059 103.854 7.75849 103.867 7.75243ZM102.027 12.515C102.106 12.0066 102.202 11.5104 102.323 11.0142C102.463 10.4393 102.662 9.88256 102.88 9.33187C103.068 8.91432 103.273 8.52097 103.534 8.14578C103.643 8.0187 103.758 7.89162 103.879 7.77664C103.885 7.78269 103.885 7.79479 103.891 7.80085C104 8.12157 104.084 8.4423 104.139 8.77514C104.163 9.17453 104.151 9.56788 104.115 9.96728C103.975 10.8084 103.733 11.6133 103.419 12.406C103.001 13.3319 102.493 14.2154 101.966 15.0808C101.942 14.7722 101.93 14.4696 101.924 14.161C101.918 13.6103 101.966 13.0596 102.027 12.515ZM84.8952 7.1957C84.8891 7.1957 84.8831 7.1957 84.8831 7.1957C84.8891 7.20175 84.8952 7.1957 84.8952 7.1957ZM83.3036 11.0989C83.4368 10.2214 83.6425 9.36213 83.9572 8.53308C84.0964 8.23655 84.2537 7.96424 84.4352 7.69192C84.5381 7.57694 84.641 7.46196 84.756 7.35303C84.8044 7.32278 84.8588 7.28647 84.9133 7.25621C84.9315 7.34093 84.9496 7.4317 84.9617 7.51643C85.0404 8.17604 85.0464 8.8296 84.9859 9.48921C84.877 10.1004 84.6955 10.6874 84.4655 11.2684C84.1206 12.0429 83.703 12.7691 83.2492 13.4892C83.2431 13.4953 83.2431 13.5013 83.2371 13.5013C83.225 13.3198 83.2128 13.1383 83.2068 12.9567C83.1886 12.3395 83.231 11.7162 83.3036 11.0989ZM62.3171 11.5165C62.426 10.7842 62.5773 10.0581 62.8375 9.36213C62.9404 9.15033 63.0554 8.95063 63.1885 8.75698C63.3277 8.59964 63.4669 8.46046 63.6242 8.32127C63.6787 8.28497 63.7332 8.25471 63.7937 8.2184C63.8118 8.21235 63.83 8.2063 63.8481 8.20024C63.9086 8.25471 63.9631 8.31522 64.0176 8.37574C64.1265 8.53913 64.2173 8.70252 64.308 8.88406C64.4109 9.14428 64.4956 9.41054 64.5562 9.68286C64.5743 9.91282 64.5683 10.1428 64.5562 10.3788C64.4351 11.0263 64.2233 11.6435 63.9813 12.2547C63.5335 13.2895 63.0251 14.2941 62.4744 15.2805C62.4684 15.2926 62.4623 15.3047 62.4563 15.3107C62.4079 15.0687 62.3655 14.8266 62.3292 14.5846C62.2142 13.5619 62.2142 12.5392 62.3171 11.5165ZM50.4441 8.68436C50.4562 8.70857 50.4623 8.73278 50.4744 8.75698C50.4623 8.73883 50.4502 8.71462 50.4441 8.68436ZM50.311 8.50282C50.311 8.50282 50.311 8.49677 50.311 8.50282C50.311 8.49677 50.311 8.50282 50.311 8.50282ZM50.3231 8.24866C50.3231 8.24866 50.3231 8.25471 50.3231 8.24866C50.317 8.2063 50.311 8.16394 50.3049 8.12157C50.311 8.16999 50.317 8.2063 50.3231 8.24866ZM50.2565 8.45441C50.2565 8.45441 50.2565 8.46046 50.2565 8.45441C50.2384 8.44836 50.2263 8.43625 50.2142 8.42415C50.2263 8.43625 50.2384 8.44836 50.2565 8.45441ZM47.0674 14.5362C47.2126 13.5498 47.4123 12.5815 47.7633 11.6496C47.9993 11.1534 48.2837 10.6995 48.6045 10.2517C48.9797 9.79179 49.373 9.35003 49.8208 8.96273C49.9237 8.89617 50.0326 8.8296 50.1415 8.77514C50.1052 8.87196 50.0689 8.96273 50.0326 9.05956C49.6756 9.87046 49.2883 10.6693 48.907 11.468C48.32 12.7147 47.7088 13.9613 47.0069 15.1474C47.025 14.9477 47.0432 14.7419 47.0674 14.5362ZM29.4879 14.5906C29.5484 14.2094 29.621 13.8281 29.7118 13.4469C29.8207 12.987 29.978 12.5392 30.1475 12.1035C30.3169 11.7464 30.4985 11.4015 30.7224 11.0747C30.8676 10.9053 31.0249 10.754 31.1883 10.6027C31.273 10.5422 31.3638 10.4877 31.4485 10.4393C31.5151 10.4211 31.5877 10.403 31.6543 10.3848C31.7874 10.3788 31.9206 10.3788 32.0476 10.3848C32.0779 10.3909 32.1082 10.3969 32.1324 10.409C32.2231 10.4938 32.3018 10.5785 32.3865 10.6753C32.4773 10.8205 32.562 10.9718 32.6407 11.1231C32.7254 11.3712 32.798 11.6254 32.8464 11.8856C32.8706 12.2668 32.8585 12.642 32.8222 13.0233C32.7012 13.7253 32.5136 14.403 32.2594 15.0747C31.7874 16.1095 31.1883 17.0657 30.5106 17.9734C30.2322 18.3183 29.9478 18.6512 29.6513 18.9719C29.5665 18.6451 29.5 18.3123 29.4395 17.9734C29.3245 16.8418 29.3608 15.7162 29.4879 14.5906ZM11.8176 11.6133C11.8841 11.2078 11.9628 10.8024 12.0657 10.403C12.1867 9.93702 12.3501 9.48921 12.5316 9.0414C12.9068 8.2063 13.3486 7.40145 13.8872 6.65711C14.2503 6.21536 14.6436 5.81596 15.0854 5.44682C15.4121 5.21686 15.7389 5.01716 16.096 4.84772C16.3501 4.75695 16.6043 4.69038 16.8705 4.63592C17.1308 4.61171 17.391 4.61171 17.6512 4.62987C17.8448 4.67223 18.0324 4.72669 18.22 4.79326C18.4681 4.91429 18.7041 5.04742 18.928 5.20476C19.1156 5.3742 19.2911 5.54364 19.4545 5.73729C19.6058 5.95514 19.7389 6.17905 19.8539 6.41505C19.9326 6.64501 19.9931 6.87497 20.0355 7.11703C20.0415 7.27437 20.0415 7.4317 20.0294 7.58904C19.9749 7.8311 19.9084 8.05501 19.8176 8.28497C19.6905 8.54518 19.5453 8.78724 19.3758 9.02325C17.8085 10.9658 16.0173 12.7086 14.0566 14.2517C13.3728 14.7722 12.6769 15.2805 11.9688 15.7707C11.9083 15.4983 11.8599 15.226 11.8176 14.9537C11.6965 13.8281 11.6905 12.7207 11.8176 11.6133Z" fill="#EEF0F6"/>
</svg>
