<svg width="56" height="55" viewBox="0 0 56 55" fill="none" xmlns="http://www.w3.org/2000/svg">
<path d="M13.0133 54.4623C12.2151 54.4605 11.4188 54.3855 10.6343 54.2383C10.2033 54.1383 9.82332 54.0383 9.44232 53.9383C9.01132 53.8113 8.60532 53.6593 8.22532 53.5073C8.13932 53.4784 8.05487 53.445 7.97232 53.4073C7.15518 52.9958 6.37322 52.5178 5.63432 51.9783C5.58332 51.9533 5.55832 51.9023 5.50732 51.8783C5.12881 51.5843 4.77282 51.2624 4.44232 50.9153C4.08732 50.5353 3.83332 50.2313 3.55532 49.9273C2.9733 49.1787 2.4706 48.3717 2.05532 47.5193C2.00692 47.4324 1.97313 47.3382 1.95532 47.2403C1.80227 46.8867 1.67526 46.5224 1.57532 46.1503C1.42332 45.6183 1.32132 45.2633 1.24532 44.8833C1.07978 44.0828 0.995017 43.2677 0.992324 42.4503V8.23831C0.94313 7.14305 1.12268 6.04956 1.51953 5.02754C1.91637 4.00552 2.52181 3.0774 3.29724 2.30235C4.07268 1.52729 5.00109 0.922303 6.0233 0.525952C7.04551 0.129602 8.13909 -0.0494168 9.23432 0.000309684H16.8413C17.9365 -0.0492736 19.0299 0.129851 20.052 0.526266C21.0741 0.92268 22.0024 1.52769 22.7777 2.30273C23.5531 3.07777 24.1584 4.00584 24.5552 5.02779C24.952 6.04974 25.1315 7.14314 25.0823 8.23831V42.4243C25.0864 45.5615 23.857 48.5745 21.6593 50.8133C21.3451 51.1337 21.0151 51.4381 20.6703 51.7253C19.785 52.4816 18.7831 53.0895 17.7033 53.5253C17.4493 53.6253 17.1453 53.7533 16.8163 53.8803C15.5843 54.2608 14.3028 54.4569 13.0133 54.4623ZM9.81832 50.0273C10.0723 50.1273 10.3253 50.2043 10.5793 50.2803L11.4163 50.5083C12.7751 50.7678 14.1769 50.6895 15.4983 50.2803C15.6753 50.2043 15.9293 50.1283 16.1573 50.0273C16.9009 49.7309 17.5938 49.3207 18.2113 48.8113C18.4653 48.6113 18.6423 48.4313 18.8203 48.2793C20.3702 46.7344 21.2454 44.6387 21.2543 42.4503V8.23831C21.3027 7.64345 21.2211 7.04519 21.0153 6.485C20.8094 5.92482 20.4841 5.41613 20.062 4.99421C19.6399 4.57228 19.131 4.24723 18.5707 4.04159C18.0105 3.83595 17.4122 3.75464 16.8173 3.80331H9.20932C8.61449 3.75464 8.01619 3.83595 7.45591 4.04159C6.89563 4.24723 6.3868 4.57228 5.96468 4.99421C5.54257 5.41613 5.21729 5.92482 5.01139 6.485C4.8055 7.04519 4.72393 7.64345 4.77232 8.23831V42.4243C4.77105 42.9867 4.8304 43.5476 4.94932 44.0973C5.00032 44.3253 5.07632 44.6043 5.14932 44.9083C5.24932 45.1873 5.32732 45.4153 5.42832 45.6683C5.46661 45.7324 5.50004 45.7992 5.52832 45.8683C5.55332 45.9193 5.57932 45.9953 5.60432 46.0453C5.87872 46.5587 6.19232 47.0502 6.54232 47.5153C6.71932 47.7153 6.94832 47.9713 7.17632 48.2253C7.40992 48.4747 7.66452 48.7035 7.93732 48.9093C7.96232 48.9343 8.01332 48.9603 8.03732 48.9853C8.47832 49.3098 8.94484 49.5981 9.43232 49.8473C9.48332 49.8723 9.53232 49.8723 9.58432 49.8983C9.63632 49.9243 9.71632 49.9763 9.81832 50.0273Z" fill="white"/>
<path d="M47.2153 54.4623H12.9843C12.4804 54.4623 11.9971 54.2621 11.6408 53.9058C11.2845 53.5495 11.0843 53.0662 11.0843 52.5623C11.0843 52.0584 11.2845 51.5751 11.6408 51.2188C11.9971 50.8625 12.4804 50.6623 12.9843 50.6623C13.8278 50.6719 14.6672 50.5435 15.4693 50.2823C15.6463 50.2063 15.9003 50.1303 16.1283 50.0283C16.8722 49.7304 17.5652 49.3184 18.1823 48.8073C18.4363 48.6073 18.6133 48.4273 18.7913 48.2753L36.1323 30.9573C36.3087 30.7805 36.5182 30.6403 36.7488 30.5445C36.9794 30.4488 37.2266 30.3994 37.4763 30.3993H47.2133C48.3085 30.3499 49.4019 30.5291 50.424 30.9256C51.4461 31.322 52.3744 31.927 53.1497 32.702C53.9251 33.477 54.5305 34.405 54.9275 35.4269C55.3245 36.4488 55.5042 37.5421 55.4553 38.6373V46.2443C55.5023 47.3379 55.3211 48.4293 54.9233 49.4491C54.5255 50.4688 53.9198 51.3946 53.1448 52.1676C52.3697 52.9406 51.4423 53.5438 50.4215 53.9388C49.4007 54.3339 48.3088 54.5122 47.2153 54.4623ZM21.7573 50.6623H47.2153C47.8103 50.7108 48.4087 50.6294 48.9691 50.4236C49.5294 50.2177 50.0383 49.8925 50.4604 49.4704C50.8825 49.0483 51.2078 48.5394 51.4136 47.979C51.6194 47.4187 51.7009 46.8203 51.6523 46.2253V38.6143C51.7009 38.0193 51.6194 37.4209 51.4136 36.8606C51.2078 36.3002 50.8825 35.7913 50.4604 35.3692C50.0383 34.9471 49.5294 34.6219 48.9691 34.4161C48.4087 34.2102 47.8103 34.1288 47.2153 34.1773H38.2643L21.7573 50.6623Z" fill="white"/>
<path d="M9.99632 53.9973C9.81631 53.9969 9.63725 53.9713 9.46432 53.9213C7.58184 53.3591 5.87215 52.3298 4.49432 50.9293C3.10521 49.5567 2.08474 47.8559 1.52732 45.9843C1.45338 45.7463 1.42761 45.4959 1.45153 45.2478C1.47544 44.9997 1.54856 44.7588 1.66661 44.5393C1.78467 44.3197 1.94528 44.1259 2.13908 43.9692C2.33288 43.8124 2.55597 43.6959 2.79532 43.6263C3.27619 43.4801 3.7952 43.5283 4.24094 43.7605C4.68667 43.9927 5.02358 44.3905 5.17932 44.8683C5.57941 46.1438 6.28196 47.3036 7.2271 48.2489C8.17224 49.1942 9.33193 49.897 10.6073 50.2973C11.0868 50.4504 11.4865 50.7867 11.7193 51.233C11.952 51.6793 11.9992 52.1995 11.8503 52.6803C11.7126 53.0628 11.4611 53.394 11.1297 53.6294C10.7983 53.8648 10.4028 53.9932 9.99632 53.9973Z" fill="white"/>
<path d="M20.2363 51.3943C19.9865 51.3954 19.739 51.3466 19.5083 51.251C19.2775 51.1554 19.0681 51.0147 18.8923 50.8373C18.5356 50.4829 18.333 50.0022 18.3283 49.4994C18.3236 48.9967 18.5173 48.5123 18.8673 48.1513C20.379 46.6185 21.2246 44.5511 21.2203 42.3983V17.9203C21.2206 17.6708 21.27 17.4237 21.3657 17.1933C21.4615 16.9629 21.6017 16.7536 21.7783 16.5773L28.6543 9.71131C29.4081 8.9239 30.3135 8.29727 31.316 7.86917C32.3185 7.44107 33.3973 7.22037 34.4873 7.22037C35.5774 7.22037 36.6562 7.44107 37.6586 7.86917C38.6611 8.29727 39.5665 8.9239 40.3203 9.71131L45.6963 15.0833C46.5051 15.8235 47.151 16.7239 47.5929 17.7272C48.0348 18.7306 48.263 19.815 48.263 20.9113C48.263 22.0077 48.0348 23.092 47.5929 24.0954C47.151 25.0988 46.5051 25.9992 45.6963 26.7393L21.5803 50.8113C21.4093 50.9968 21.2014 51.1445 20.9699 51.2449C20.7385 51.3453 20.4886 51.3962 20.2363 51.3943ZM25.0283 18.7313V42.0183L43.0063 24.0783C43.4596 23.6898 43.8235 23.2079 44.0729 22.6655C44.3224 22.1232 44.4516 21.5333 44.4516 20.9363C44.4516 20.3393 44.3224 19.7494 44.0729 19.2071C43.8235 18.6647 43.4596 18.1828 43.0063 17.7943L37.6303 12.4213C37.2379 11.9737 36.7544 11.615 36.2122 11.3693C35.67 11.1235 35.0816 10.9964 34.4863 10.9964C33.891 10.9964 33.3026 11.1235 32.7604 11.3693C32.2182 11.615 31.7347 11.9737 31.3423 12.4213L25.0283 18.7313Z" fill="white"/>
<path d="M13.0133 46.8513C12.1358 46.8513 11.2779 46.5911 10.5483 46.1035C9.8186 45.616 9.2499 44.923 8.91407 44.1123C8.57824 43.3015 8.49038 42.4094 8.66158 41.5487C8.83278 40.688 9.25537 39.8974 9.87589 39.2769C10.4964 38.6563 11.287 38.2338 12.1477 38.0626C13.0084 37.8914 13.9005 37.9792 14.7113 38.3151C15.522 38.6509 16.215 39.2196 16.7026 39.9492C17.1901 40.6789 17.4503 41.5368 17.4503 42.4143C17.4445 43.5893 16.9752 44.7145 16.1444 45.5453C15.3135 46.3762 14.1883 46.8455 13.0133 46.8513ZM13.0133 41.7803C12.9298 41.7795 12.847 41.7954 12.7698 41.8269C12.6925 41.8585 12.6223 41.9052 12.5632 41.9642C12.5042 42.0232 12.4575 42.0935 12.426 42.1707C12.3944 42.248 12.3785 42.3308 12.3793 42.4143C12.3793 43.1243 13.6473 43.1243 13.6473 42.4143C13.6483 42.3307 13.6325 42.2478 13.601 42.1704C13.5695 42.093 13.5228 42.0227 13.4638 41.9636C13.4047 41.9044 13.3345 41.8577 13.2571 41.826C13.1798 41.7944 13.0969 41.7785 13.0133 41.7793V41.7803Z" fill="white"/>
</svg>
