<svg width="53" height="55" viewBox="0 0 53 55" fill="none" xmlns="http://www.w3.org/2000/svg">
<path d="M26.4635 19.423C25.9131 19.418 25.3867 19.1972 24.9975 18.808C24.6083 18.4188 24.3875 17.8924 24.3825 17.342V2.081C24.3825 1.52908 24.6018 0.999774 24.992 0.609511C25.3823 0.219248 25.9116 0 26.4635 0C27.0154 0 27.5447 0.219248 27.935 0.609511C28.3253 0.999774 28.5445 1.52908 28.5445 2.081V17.342C28.5396 17.8924 28.3187 18.4188 27.9295 18.808C27.5403 19.1972 27.0139 19.418 26.4635 19.423Z" fill="white"/>
<path d="M26.4635 54.075C25.9131 54.07 25.3867 53.8492 24.9975 53.46C24.6083 53.0708 24.3875 52.5444 24.3825 51.994V36.733C24.3825 36.1811 24.6018 35.6518 24.992 35.2615C25.3823 34.8713 25.9116 34.652 26.4635 34.652C27.0154 34.652 27.5447 34.8713 27.935 35.2615C28.3253 35.6518 28.5445 36.1811 28.5445 36.733V51.994C28.5396 52.5444 28.3187 53.0708 27.9295 53.46C27.5403 53.8492 27.0139 54.07 26.4635 54.075Z" fill="white"/>
<path d="M32.0135 4.162H20.9135C20.6402 4.162 20.3696 4.10817 20.1171 4.00359C19.8647 3.89901 19.6353 3.74573 19.442 3.55249C19.2488 3.35925 19.0955 3.12984 18.9909 2.87736C18.8863 2.62489 18.8325 2.35428 18.8325 2.081C18.8325 1.80772 18.8863 1.53711 18.9909 1.28464C19.0955 1.03216 19.2488 0.802749 19.442 0.609511C19.6353 0.416272 19.8647 0.262987 20.1171 0.158407C20.3696 0.0538267 20.6402 -4.0722e-09 20.9135 0H32.0135C32.5654 8.22418e-09 33.0947 0.219248 33.485 0.609511C33.8753 0.999774 34.0945 1.52908 34.0945 2.081C34.0945 2.63292 33.8753 3.16223 33.485 3.55249C33.0947 3.94275 32.5654 4.162 32.0135 4.162Z" fill="white"/>
<path d="M32.0135 54.074H20.9135C20.3616 54.074 19.8323 53.8547 19.442 53.4645C19.0518 53.0742 18.8325 52.5449 18.8325 51.993C18.8325 51.4411 19.0518 50.9118 19.442 50.5215C19.8323 50.1312 20.3616 49.912 20.9135 49.912H32.0135C32.5654 49.912 33.0947 50.1312 33.485 50.5215C33.8753 50.9118 34.0945 51.4411 34.0945 51.993C34.0945 52.5449 33.8753 53.0742 33.485 53.4645C33.0947 53.8547 32.5654 54.074 32.0135 54.074Z" fill="white"/>
<path d="M18.0625 24.273C17.7008 24.2803 17.3445 24.1842 17.0355 23.996L3.82351 16.365C3.34891 16.0884 3.00363 15.6346 2.86363 15.1034C2.72364 14.5722 2.80039 14.0071 3.07701 13.5325C3.35363 13.0579 3.80746 12.7126 4.33866 12.5726C4.86985 12.4326 5.43491 12.5094 5.90951 12.786L19.1175 20.416C19.5123 20.6449 19.8203 20.9979 19.9935 21.4201C20.1667 21.8424 20.1954 22.31 20.0751 22.7502C19.9548 23.1904 19.6923 23.5785 19.3284 23.8539C18.9646 24.1294 18.5189 24.2767 18.0625 24.273Z" fill="white"/>
<path d="M48.0735 41.601C47.7118 41.6083 47.3555 41.5122 47.0465 41.324L33.8385 33.694C33.3636 33.4182 33.0178 32.965 32.877 32.4342C32.7363 31.9034 32.8122 31.3384 33.088 30.8635C33.3638 30.3886 33.817 30.0428 34.3478 29.902C34.8787 29.7613 35.4436 29.8372 35.9185 30.113L49.1265 37.743C49.5213 37.9719 49.8293 38.3249 50.0025 38.7471C50.1757 39.1693 50.2044 39.637 50.0841 40.0772C49.9638 40.5174 49.7013 40.9055 49.3375 41.1809C48.9736 41.4563 48.5289 41.6037 48.0725 41.6L48.0735 41.601Z" fill="white"/>
<path d="M2.07951 21.45C1.71644 21.4581 1.35864 21.362 1.04851 21.173C0.812525 21.0373 0.605768 20.8562 0.440192 20.6401C0.274616 20.4241 0.153505 20.1773 0.0838577 19.9142C0.0142108 19.651 -0.00259041 19.3767 0.0344252 19.107C0.0714407 18.8373 0.161539 18.5777 0.299512 18.343L5.84851 8.742C6.12447 8.2674 6.57766 7.92185 7.10839 7.78139C7.37118 7.71184 7.6451 7.69473 7.9145 7.73104C8.1839 7.76734 8.44351 7.85636 8.67851 7.993C8.91351 8.12964 9.1193 8.31123 9.28412 8.5274C9.44894 8.74357 9.56957 8.99009 9.63912 9.25288C9.70868 9.51567 9.72579 9.78958 9.68948 10.059C9.65317 10.3284 9.56415 10.588 9.42751 10.823L3.87851 20.423C3.69301 20.7351 3.42976 20.9938 3.11446 21.1738C2.79915 21.3538 2.44257 21.4489 2.07951 21.45Z" fill="white"/>
<path d="M45.3035 46.39C44.9418 46.3973 44.5855 46.3012 44.2765 46.113C44.0405 45.9773 43.8338 45.7962 43.6682 45.5801C43.5026 45.3641 43.3815 45.1173 43.3119 44.8542C43.2422 44.591 43.2254 44.3167 43.2624 44.047C43.2994 43.7773 43.3895 43.5177 43.5275 43.283L49.0765 33.683C49.2132 33.448 49.3947 33.2422 49.6109 33.0774C49.8271 32.9126 50.0736 32.7919 50.3364 32.7224C50.5992 32.6528 50.8731 32.6357 51.1425 32.672C51.4119 32.7083 51.6715 32.7974 51.9065 32.934C52.1415 33.0706 52.3473 33.2522 52.5121 33.4684C52.6769 33.6846 52.7976 33.9311 52.8671 34.1939C52.9367 34.4567 52.9538 34.7306 52.9175 35C52.8812 35.2694 52.7922 35.529 52.6555 35.764L47.1065 45.364C46.9254 45.6808 46.6625 45.9431 46.3453 46.1236C46.0282 46.3041 45.6684 46.3961 45.3035 46.39Z" fill="white"/>
<path d="M26.4635 38.835C24.3961 38.8314 22.3657 38.2864 20.5744 37.2543C18.7831 36.2221 17.2934 34.7388 16.2535 32.952C15.209 31.1582 14.6628 29.1178 14.6715 27.042C14.6593 24.9746 15.2059 22.9424 16.2535 21.16C17.2903 19.37 18.7794 17.8839 20.5715 16.8509C22.3637 15.8178 24.3959 15.274 26.4645 15.274C28.5331 15.274 30.5653 15.8178 32.3575 16.8509C34.1497 17.8839 35.6388 19.37 36.6755 21.16C37.72 22.9538 38.2662 24.9942 38.2575 27.07C38.2697 29.1374 37.7231 31.1696 36.6755 32.952C35.6354 34.7391 34.1454 36.2226 32.3537 37.2548C30.562 38.2869 28.5312 38.8318 26.4635 38.835ZM26.4635 19.412C24.4423 19.4199 22.5062 20.2263 21.077 21.6555C19.6478 23.0847 18.8414 25.0208 18.8335 27.042C18.8288 28.387 19.1834 29.7089 19.8605 30.871C20.7005 32.3226 21.9954 33.4571 23.5449 34.0988C25.0944 34.7406 26.8122 34.8539 28.4326 34.4213C30.053 33.9888 31.4857 33.0343 32.5092 31.7057C33.5326 30.377 34.0898 28.7481 34.0945 27.071C34.0992 25.726 33.7447 24.4041 33.0675 23.242C32.3983 22.0817 31.436 21.1175 30.277 20.4461C29.118 19.7746 27.803 19.4194 26.4635 19.416V19.412Z" fill="white"/>
<path d="M34.8675 24.273C34.5004 24.2755 34.1394 24.179 33.8226 23.9935C33.5058 23.8079 33.2449 23.5404 33.0675 23.219C32.7918 22.7443 32.7159 22.1796 32.8563 21.649C32.9967 21.1183 33.3421 20.6651 33.8165 20.389L47.0245 12.759C47.2597 12.6158 47.5211 12.521 47.7934 12.48C48.0656 12.4391 48.3434 12.4529 48.6102 12.5206C48.8771 12.5884 49.1278 12.7087 49.3476 12.8745C49.5675 13.0403 49.752 13.2483 49.8904 13.4863C50.0289 13.7243 50.1184 13.9876 50.1538 14.2606C50.1893 14.5337 50.1699 14.8111 50.0968 15.0765C50.0237 15.342 49.8984 15.5902 49.7282 15.8067C49.5579 16.0231 49.3463 16.2034 49.1055 16.337L35.8935 23.967C35.5929 24.1758 35.2334 24.283 34.8675 24.273Z" fill="white"/>
<path d="M4.85451 41.605C4.4874 41.6075 4.12642 41.511 3.80962 41.3255C3.49281 41.1399 3.23194 40.8724 3.05451 40.551C2.77882 40.0763 2.70285 39.5116 2.8433 38.981C2.98374 38.4503 3.32911 37.9971 3.80351 37.721L17.0095 30.086C17.4841 29.81 18.0489 29.7339 18.5796 29.8744C19.1104 30.0149 19.5636 30.3604 19.8395 30.835C20.1155 31.3096 20.1916 31.8744 20.0511 32.4051C19.9107 32.9359 19.5651 33.389 19.0905 33.665L5.88151 41.295C5.58111 41.5054 5.22118 41.6141 4.85451 41.605Z" fill="white"/>
<path d="M50.8535 21.45C50.4864 21.4525 50.1254 21.356 49.8086 21.1705C49.4918 20.9849 49.2309 20.7174 49.0535 20.396L43.5005 10.795C43.2246 10.3203 43.1485 9.75535 43.289 9.22452C43.4296 8.6937 43.7753 8.24046 44.25 7.9645C44.7248 7.68854 45.2897 7.61248 45.8205 7.75303C46.3513 7.89359 46.8046 8.23926 47.0805 8.714L52.6295 18.314C52.9052 18.7887 52.9812 19.3534 52.8407 19.884C52.7003 20.4147 52.3549 20.8679 51.8805 21.144C51.5796 21.353 51.2197 21.4602 50.8535 21.45Z" fill="white"/>
<path d="M7.62951 46.39C7.2624 46.3925 6.90142 46.296 6.58462 46.1105C6.26781 45.9249 6.00694 45.6574 5.82951 45.336L0.280512 35.736C0.143872 35.501 0.0548562 35.2414 0.0185477 34.972C-0.0177607 34.7026 -0.000651002 34.4287 0.0689001 34.1659C0.209365 33.6351 0.554907 33.182 1.02951 32.906C1.50412 32.63 2.06891 32.5539 2.59964 32.6944C3.13036 32.8349 3.58355 33.1804 3.85951 33.655L9.40851 43.255C9.6842 43.7297 9.76017 44.2944 9.61973 44.825C9.47929 45.3557 9.13392 45.8089 8.65951 46.085C8.35432 46.2872 7.99559 46.3934 7.62951 46.39Z" fill="white"/>
</svg>
