<svg width="55" height="55" viewBox="0 0 55 55" fill="none" xmlns="http://www.w3.org/2000/svg">
<path d="M34.581 54.074H19.491C5.835 54.074 0 48.239 0 34.583V19.492C0 5.835 5.835 0 19.491 0H34.581C48.238 0 54.072 5.835 54.072 19.492V34.583C54.073 48.239 48.238 54.074 34.581 54.074ZM19.491 3.774C7.897 3.773 3.773 7.897 3.773 19.492V34.583C3.773 46.178 7.898 50.302 19.492 50.302H34.582C46.176 50.302 50.301 46.177 50.301 34.583V19.492C50.301 7.897 46.176 3.773 34.582 3.773L19.491 3.774Z" fill="white"/>
<path d="M19.686 24.671C18.2155 24.671 16.778 24.2349 15.5553 23.418C14.3327 22.601 13.3797 21.4398 12.817 20.0813C12.2542 18.7227 12.107 17.2278 12.3939 15.7855C12.6807 14.3433 13.3889 13.0185 14.4287 11.9787C15.4685 10.9389 16.7933 10.2307 18.2355 9.94386C19.6778 9.65698 21.1727 9.80422 22.5312 10.367C23.8898 10.9297 25.051 11.8827 25.868 13.1053C26.6849 14.328 27.121 15.7655 27.121 17.236C27.1215 18.2125 26.9296 19.1796 26.5561 20.0819C26.1827 20.9842 25.635 21.804 24.9445 22.4945C24.254 23.185 23.4342 23.7327 22.5319 24.1061C21.6296 24.4796 20.6625 24.6715 19.686 24.671ZM19.686 13.856C19.0175 13.856 18.364 14.0542 17.8082 14.4256C17.2523 14.797 16.8191 15.3249 16.5633 15.9425C16.3075 16.5601 16.2405 17.2397 16.3709 17.8954C16.5014 18.5511 16.8233 19.1533 17.296 19.626C17.7687 20.0987 18.3709 20.4206 19.0266 20.5511C19.6822 20.6815 20.3619 20.6145 20.9795 20.3587C21.5971 20.1029 22.125 19.6697 22.4964 19.1138C22.8678 18.558 23.066 17.9045 23.066 17.236C23.0655 16.3398 22.7092 15.4805 22.0754 14.8469C21.4416 14.2133 20.5822 13.8563 19.686 13.856Z" fill="white"/>
<path d="M3.695 45.825C3.3813 45.8204 3.07393 45.7361 2.80175 45.58C2.52957 45.424 2.30151 45.2014 2.139 44.933C1.85945 44.4843 1.75809 43.9471 1.85489 43.4274C1.9517 42.9076 2.23964 42.443 2.662 42.125L15.031 33.176C16.3488 32.2254 17.9536 31.7576 19.5758 31.8512C21.1979 31.9448 22.7383 32.5941 23.938 33.69L24.766 34.474C25.4036 35.0361 26.2245 35.3462 27.0745 35.3462C27.9245 35.3462 28.7454 35.0361 29.383 34.474L39.82 24.822C41.1238 23.6347 42.8236 22.9767 44.587 22.9767C46.3503 22.9767 48.0502 23.6347 49.354 24.822L53.444 28.607C53.8235 28.9768 54.0537 29.4733 54.0906 30.0019C54.1275 30.5304 53.9685 31.0541 53.644 31.473C53.4909 31.6724 53.2977 31.8376 53.0769 31.9578C52.8561 32.078 52.6125 32.1506 52.3619 32.171C52.1113 32.1913 51.8592 32.159 51.6219 32.0759C51.3846 31.9929 51.1673 31.8611 50.984 31.689L46.895 27.899C46.2524 27.3369 45.4277 27.027 44.574 27.027C43.7203 27.027 42.8955 27.3369 42.253 27.899L31.817 37.551C30.5132 38.7383 28.8134 39.3963 27.05 39.3963C25.2866 39.3963 23.5868 38.7383 22.283 37.551L21.455 36.767C20.8603 36.2498 20.1091 35.9473 19.3219 35.9082C18.5347 35.869 17.7571 36.0954 17.114 36.551L4.745 45.5C4.43385 45.7077 4.06908 45.8206 3.695 45.825Z" fill="white"/>
</svg>
