<svg width="55" height="55" viewBox="0 0 55 55" fill="none" xmlns="http://www.w3.org/2000/svg">
<path d="M15.83 35.467C15.58 35.4682 15.3322 35.4194 15.1012 35.3236C14.8703 35.2278 14.6608 35.0868 14.485 34.909C14.132 34.5514 13.934 34.069 13.934 33.5665C13.934 33.064 14.132 32.5816 14.485 32.224L22.591 24.118C22.7868 23.9177 23.0249 23.7637 23.2879 23.6673C23.5509 23.5709 23.8321 23.5346 24.111 23.561C24.3906 23.5887 24.6605 23.678 24.9014 23.8226C25.1422 23.9672 25.3481 24.1633 25.504 24.397L28.268 28.554L37.261 19.554C37.4347 19.3664 37.6445 19.2157 37.8777 19.111C38.111 19.0064 38.3631 18.9499 38.6187 18.945C38.8743 18.94 39.1283 18.9867 39.3655 19.0823C39.6027 19.1778 39.8181 19.3203 39.9989 19.5011C40.1797 19.6819 40.3222 19.8973 40.4177 20.1345C40.5133 20.3717 40.56 20.6257 40.555 20.8813C40.5501 21.1369 40.4936 21.389 40.389 21.6223C40.2843 21.8556 40.1337 22.0653 39.946 22.239L29.307 32.883C29.1112 33.0833 28.8731 33.2373 28.6101 33.3337C28.3471 33.4301 28.0659 33.4664 27.787 33.44C27.5074 33.4123 27.2375 33.323 26.9966 33.1784C26.7558 33.0338 26.5499 32.8377 26.394 32.604L23.633 28.454L17.173 34.913C16.9971 35.0899 16.7878 35.2299 16.5572 35.325C16.3266 35.4202 16.0794 35.4684 15.83 35.467Z" fill="white"/>
<path d="M38.63 27.864C38.1272 27.8603 37.6461 27.659 37.2905 27.3035C36.935 26.9479 36.7337 26.4668 36.73 25.964V22.798H33.564C33.0601 22.798 32.5768 22.5978 32.2205 22.2415C31.8642 21.8852 31.664 21.4019 31.664 20.898C31.664 20.3941 31.8642 19.9108 32.2205 19.5545C32.5768 19.1982 33.0601 18.998 33.564 18.998H38.63C39.1328 19.0017 39.6139 19.203 39.9695 19.5585C40.325 19.9141 40.5263 20.3952 40.53 20.898V25.964C40.5263 26.4668 40.325 26.9479 39.9695 27.3035C39.6139 27.659 39.1328 27.8603 38.63 27.864Z" fill="white"/>
<path d="M34.83 54.462H19.63C5.877 54.462 0 48.585 0 34.83V19.63C0 5.877 5.877 0 19.632 0H34.832C48.587 0 54.464 5.877 54.464 19.632V34.832C54.462 48.585 48.585 54.462 34.83 54.462ZM19.632 3.8C7.95 3.8 3.8 7.95 3.8 19.632V34.832C3.8 46.51 7.954 50.664 19.632 50.664H34.832C46.51 50.664 50.664 46.51 50.664 34.832V19.632C50.662 7.95 46.508 3.8 34.83 3.8H19.632Z" fill="white"/>
</svg>
