<svg width="50" height="55" viewBox="0 0 50 55" fill="none" xmlns="http://www.w3.org/2000/svg">
<path d="M47.3952 54.6121H2.12319C1.63011 54.6007 1.16106 54.3969 0.816344 54.0441C0.471632 53.6914 0.278636 53.2178 0.278636 52.7246C0.278636 52.2314 0.471632 51.7577 0.816344 51.405C1.16106 51.0523 1.63011 50.8484 2.12319 50.8371H47.3952C47.8883 50.8484 48.3573 51.0523 48.702 51.405C49.0467 51.7577 49.2397 52.2314 49.2397 52.7246C49.2397 53.2178 49.0467 53.6914 48.702 54.0441C48.3573 54.3969 47.8883 54.6007 47.3952 54.6121Z" fill="white"/>
<path d="M8.66919 47.0591H4.64219C3.47734 47.0522 2.36214 46.5865 1.53846 45.7628C0.714771 44.9391 0.24901 43.8239 0.242188 42.6591V20.9591C0.24901 19.7942 0.714771 18.679 1.53846 17.8553C2.36214 17.0316 3.47734 16.5659 4.64219 16.5591H8.66919C9.83403 16.5659 10.9492 17.0316 11.7729 17.8553C12.5966 18.679 13.0624 19.7942 13.0692 20.9591V42.6591C13.0624 43.8239 12.5966 44.9391 11.7729 45.7628C10.9492 46.5865 9.83403 47.0522 8.66919 47.0591ZM4.64219 20.3041C4.55936 20.3033 4.47721 20.319 4.40053 20.3503C4.32386 20.3816 4.2542 20.4279 4.19563 20.4865C4.13706 20.5451 4.09076 20.6147 4.05943 20.6914C4.02811 20.7681 4.01239 20.8502 4.01319 20.9331V42.6541C4.01239 42.7369 4.02811 42.819 4.05943 42.8957C4.09076 42.9724 4.13706 43.0421 4.19563 43.1006C4.2542 43.1592 4.32386 43.2055 4.40053 43.2368C4.47721 43.2681 4.55936 43.2839 4.64219 43.2831H8.66919C8.75201 43.2839 8.83416 43.2681 8.91084 43.2368C8.98752 43.2055 9.05718 43.1592 9.11574 43.1006C9.17431 43.0421 9.22061 42.9724 9.25194 42.8957C9.28327 42.819 9.29899 42.7369 9.29819 42.6541V20.9541C9.29899 20.8712 9.28327 20.7891 9.25194 20.7124C9.22061 20.6357 9.17431 20.5661 9.11574 20.5075C9.05718 20.4489 8.98752 20.4026 8.91084 20.3713C8.83416 20.34 8.75201 20.3243 8.66919 20.3251H4.64219V20.3041Z" fill="white"/>
<path d="M26.7712 47.0651H22.7442C21.5791 47.059 20.4634 46.5935 19.6396 45.7697C18.8157 44.9458 18.3502 43.8302 18.3442 42.6651V12.9711C18.3502 11.806 18.8157 10.6903 19.6396 9.86647C20.4634 9.04262 21.5791 8.57711 22.7442 8.57106H26.7712C27.9363 8.57711 29.0519 9.04262 29.8758 9.86647C30.6996 10.6903 31.1651 11.806 31.1712 12.9711V42.6651C31.1651 43.8302 30.6996 44.9458 29.8758 45.7697C29.0519 46.5935 27.9363 47.059 26.7712 47.0651ZM22.7442 12.3421C22.6614 12.3413 22.5792 12.357 22.5025 12.3883C22.4259 12.4196 22.3562 12.4659 22.2976 12.5245C22.2391 12.5831 22.1928 12.6527 22.1614 12.7294C22.1301 12.8061 22.1144 12.8882 22.1152 12.9711V42.6651C22.1144 42.7479 22.1301 42.83 22.1614 42.9067C22.1928 42.9834 22.2391 43.0531 22.2976 43.1116C22.3562 43.1702 22.4259 43.2165 22.5025 43.2478C22.5792 43.2791 22.6614 43.2949 22.7442 43.2941H26.7712C26.854 43.2949 26.9362 43.2791 27.0128 43.2478C27.0895 43.2165 27.1592 43.1702 27.2177 43.1116C27.2763 43.0531 27.3226 42.9834 27.3539 42.9067C27.3853 42.83 27.401 42.7479 27.4002 42.6651V12.9711C27.401 12.8882 27.3853 12.8061 27.3539 12.7294C27.3226 12.6527 27.2763 12.5831 27.2177 12.5245C27.1592 12.4659 27.0895 12.4196 27.0128 12.3883C26.9362 12.357 26.854 12.3413 26.7712 12.3421H22.7442Z" fill="white"/>
<path d="M44.8782 47.0621H40.8512C39.6862 47.0558 38.5707 46.5902 37.7469 45.7664C36.9231 44.9426 36.4575 43.8271 36.4512 42.6621V4.93906C36.4575 3.77405 36.9231 2.65856 37.7469 1.83476C38.5707 1.01096 39.6862 0.545366 40.8512 0.539062H44.8782C46.0432 0.545366 47.1587 1.01096 47.9825 1.83476C48.8063 2.65856 49.2719 3.77405 49.2782 4.93906V42.6611C49.2721 43.8262 48.8067 44.942 47.9828 45.766C47.159 46.59 46.0434 47.0558 44.8782 47.0621ZM40.8512 4.31006C40.7684 4.30926 40.6862 4.32498 40.6095 4.35631C40.5329 4.38764 40.4632 4.43394 40.4046 4.49251C40.3461 4.55107 40.2998 4.62073 40.2684 4.69741C40.2371 4.77409 40.2214 4.85624 40.2222 4.93906V42.6611C40.2214 42.7439 40.2371 42.826 40.2684 42.9027C40.2998 42.9794 40.3461 43.0491 40.4046 43.1076C40.4632 43.1662 40.5329 43.2125 40.6095 43.2438C40.6862 43.2751 40.7684 43.2909 40.8512 43.2901H44.8782C44.961 43.2909 45.0432 43.2751 45.1198 43.2438C45.1965 43.2125 45.2662 43.1662 45.3247 43.1076C45.3833 43.0491 45.4296 42.9794 45.4609 42.9027C45.4923 42.826 45.508 42.7439 45.5072 42.6611V4.93906C45.508 4.85624 45.4923 4.77409 45.4609 4.69741C45.4296 4.62073 45.3833 4.55107 45.3247 4.49251C45.2662 4.43394 45.1965 4.38764 45.1198 4.35631C45.0432 4.32498 44.961 4.30926 44.8782 4.31006H40.8512Z" fill="white"/>
</svg>
