<svg width="23" height="20" viewBox="0 0 23 20" fill="none" xmlns="http://www.w3.org/2000/svg">
    <path d="M7.16467 13.3359H18.8653C19.0059 13.3364 19.1428 13.2894 19.2551 13.202C19.3675 13.1146 19.4491 12.9917 19.4877 12.8519L22.0801 3.51851C22.1078 3.41929 22.1127 3.31476 22.0945 3.21323C22.0762 3.1117 22.0353 3.01597 21.975 2.93366C21.9143 2.85128 21.8361 2.78451 21.7464 2.73853C21.6566 2.69256 21.5579 2.66862 21.4577 2.6686H5.66957L5.20675 0.522304C5.17445 0.373931 5.09423 0.241358 4.97931 0.14642C4.86439 0.0514822 4.72163 -0.000159516 4.57453 3.70146e-07H0.645078C0.473992 3.70146e-07 0.309914 0.0702685 0.188939 0.195346C0.0679633 0.320424 0 0.490067 0 0.666954C0 0.843841 0.0679633 1.01348 0.188939 1.13856C0.309914 1.26364 0.473992 1.33391 0.645078 1.33391H4.05423L6.3933 12.1686C5.98505 12.3512 5.65023 12.6738 5.44536 13.082C5.24049 13.4902 5.17812 13.959 5.26877 14.4092C5.35942 14.8595 5.59754 15.2636 5.94294 15.5534C6.28834 15.8432 6.71986 16.0009 7.16467 15.9998H18.8653C19.0364 15.9998 19.2005 15.9296 19.3214 15.8045C19.4424 15.6794 19.5104 15.5098 19.5104 15.3329C19.5104 15.156 19.4424 14.9864 19.3214 14.8613C19.2005 14.7362 19.0364 14.6659 18.8653 14.6659H7.16467C6.99359 14.6659 6.82951 14.5957 6.70853 14.4706C6.58756 14.3455 6.51959 14.1759 6.51959 13.999C6.51959 13.8221 6.58756 13.6525 6.70853 13.5274C6.82951 13.4023 6.99359 13.332 7.16467 13.332V13.3359Z" fill="url(#paint0_linear_2677_3208)"/>
    <path d="M6.52262 18.0031C6.52322 18.3985 6.63716 18.7848 6.85005 19.1133C7.06294 19.4418 7.36524 19.6976 7.71872 19.8486C8.07221 19.9995 8.46104 20.0387 8.83607 19.9612C9.2111 19.8838 9.5555 19.6931 9.82577 19.4134C10.096 19.1336 10.28 18.7773 10.3545 18.3894C10.429 18.0016 10.3906 17.5996 10.2442 17.2343C10.0979 16.869 9.85003 16.5568 9.53207 16.3371C9.21411 16.1173 8.8403 16 8.45786 15.9998C7.94433 16.0003 7.45198 16.2115 7.08908 16.5872C6.72617 16.9628 6.52242 17.4721 6.52262 18.0031Z" fill="url(#paint1_linear_2677_3208)"/>
    <path d="M15.6513 18.0031C15.6519 18.3984 15.7657 18.7846 15.9785 19.113C16.1913 19.4415 16.4935 19.6974 16.8468 19.8484C17.2002 19.9993 17.5889 20.0387 17.9639 19.9614C18.3388 19.8841 18.6833 19.6937 18.9536 19.4142C19.224 19.1347 19.4082 18.7786 19.4829 18.3909C19.5576 18.0032 19.5196 17.6013 19.3735 17.236C19.2275 16.8706 18.98 16.5582 18.6623 16.3382C18.3447 16.1182 17.9711 16.0005 17.5888 15.9998C17.3343 15.9997 17.0823 16.0515 16.8472 16.1521C16.6121 16.2528 16.3984 16.4003 16.2185 16.5863C16.0386 16.7724 15.8959 16.9933 15.7985 17.2363C15.7012 17.4794 15.6512 17.74 15.6513 18.0031Z" fill="url(#paint2_linear_2677_3208)"/>
    <defs>
        <linearGradient id="paint0_linear_2677_3208" x1="2.00048" y1="13.4568" x2="20.837" y2="8.70962" gradientUnits="userSpaceOnUse">
            <stop stop-color="var(--system_primery_gredient1, #660AFB)"/>
            <stop offset="1" stop-color="var(--system_primery_gredient2, #BF37FF)"/>
        </linearGradient>
        <linearGradient id="paint1_linear_2677_3208" x1="2.00048" y1="13.4568" x2="20.837" y2="8.70962" gradientUnits="userSpaceOnUse">
            <stop stop-color="#660AFB"/>
            <stop offset="1" stop-color="var(--system_primery_gredient2, #BF37FF)"/>
        </linearGradient>
        <linearGradient id="paint2_linear_2677_3208" x1="2.00048" y1="13.4568" x2="20.837" y2="8.70962" gradientUnits="userSpaceOnUse">
            <stop stop-color="#660AFB"/>
            <stop offset="1" stop-color="var(--system_primery_gredient2, #BF37FF)"/>
        </linearGradient>
    </defs>
</svg>
