<svg width="18" height="18" viewBox="0 0 18 18" fill="none" xmlns="http://www.w3.org/2000/svg">
    <path d="M8.57309 2.43977e-05C8.15989 2.43977e-05 7.74669 0.223819 7.53408 0.674095L5.51265 4.95037L0.992267 5.63608C0.0432706 5.7802 -0.3365 6.99854 0.35103 7.69767L3.62151 11.0268L2.84997 15.7274C2.72138 16.5089 3.31632 17.1436 3.99099 17.1427C4.16931 17.1427 4.35276 17.0989 4.53107 17.0013L8.57224 14.783L12.6143 17.0013C13.463 17.4677 14.4557 16.7148 14.2945 15.7274L13.5212 11.0268L16.7926 7.69767C17.4784 6.99854 17.1003 5.7802 16.1514 5.63608L11.631 4.95037L9.60953 0.674095C9.51527 0.47089 9.36781 0.299726 9.18423 0.180429C9.00065 0.0611318 8.78932 -0.0014181 8.57309 2.43977e-05Z" fill="#8F68FF" fill-opacity="0.3"/>
</svg>
