<svg width="16" height="13" viewBox="0 0 16 13" fill="none" xmlns="http://www.w3.org/2000/svg">
    <path
        d="M6.44296 0.768299C6.00362 0.341158 5.30266 0.346094 4.86938 0.779381L0.622796 5.02598C0.269084 5.3797 0.0703707 5.85944 0.0703707 6.35966C0.0703707 6.85989 0.269084 7.33963 0.622797 7.69334L4.86824 11.9388C5.30128 12.3719 6.0026 12.3743 6.4387 11.9444C6.87825 11.511 6.88184 10.8029 6.4467 10.3651L6.15699 10.0737C5.20158 9.11242 5.88244 7.47574 7.23772 7.47574H14.8917C15.5081 7.47574 16.0078 6.97605 16.0078 6.35966C16.0078 5.74327 15.5081 5.24359 14.8917 5.24359H7.24262C5.88911 5.24359 5.21126 3.60714 6.16834 2.65006L6.4542 2.3642C6.8962 1.9222 6.89114 1.20403 6.44296 0.768299Z"
        fill="url(#paint0_linear_2695_2680)" />
    <defs>
        <linearGradient id="paint0_linear_2695_2680" x1="14.5655" y1="8.55874" x2="1.21161" y2="4.74459"
                        gradientUnits="userSpaceOnUse">
            <stop stop-color="var(--system_primery_gredient1, #660AFB)"/>
            <stop offset="1" stop-color="var(--system_primery_gredient2, #BF37FF)"/>
        </linearGradient>
    </defs>
</svg>
