<svg width="14" height="14" viewBox="0 0 14 14" fill="none" xmlns="http://www.w3.org/2000/svg">
    <path
        d="M7.32422 7.7373C7.28047 7.73105 7.22422 7.73105 7.17422 7.7373C6.07422 7.6998 5.19922 6.7998 5.19922 5.69355C5.19922 4.5623 6.11172 3.64355 7.24922 3.64355C8.38047 3.64355 9.29922 4.5623 9.29922 5.69355C9.29297 6.7998 8.42422 7.6998 7.32422 7.7373Z"
        stroke="url(#paint0_linear_0_1)" stroke-linecap="round" stroke-linejoin="round" />
    <path
        d="M11.4641 11.8626C10.3516 12.8813 8.87656 13.5001 7.25156 13.5001C5.62656 13.5001 4.15156 12.8813 3.03906 11.8626C3.10156 11.2751 3.47656 10.7001 4.14531 10.2501C5.85781 9.1126 8.65781 9.1126 10.3578 10.2501C11.0266 10.7001 11.4016 11.2751 11.4641 11.8626Z"
        stroke="url(#paint1_linear_0_1)" stroke-linecap="round" stroke-linejoin="round" />
    <path
        d="M7.25 13.5C10.7018 13.5 13.5 10.7018 13.5 7.25C13.5 3.79822 10.7018 1 7.25 1C3.79822 1 1 3.79822 1 7.25C1 10.7018 3.79822 13.5 7.25 13.5Z"
        stroke="url(#paint2_linear_0_1)" stroke-linecap="round" stroke-linejoin="round" />
    <defs>
        <linearGradient id="paint0_linear_0_1" x1="5.57026" y1="6.39799" x2="9.10171" y2="5.59153"
                        gradientUnits="userSpaceOnUse">
            <stop stop-color="var(--system_primery_gredient1, #660AFB)"/>
            <stop offset="1" stop-color="var(--system_primery_gredient2, #BF37FF)"/>
        </linearGradient>
        <linearGradient id="paint1_linear_0_1" x1="3.80151" y1="12.1577" x2="10.0639" y2="9.22571"
                        gradientUnits="userSpaceOnUse">
            <stop stop-color="var(--system_primery_gredient1, #660AFB)"/>
            <stop offset="1" stop-color="var(--system_primery_gredient2, #BF37FF)"/>
        </linearGradient>
        <linearGradient id="paint2_linear_0_1" x1="2.13122" y1="9.41049" x2="12.8995" y2="6.95514"
                        gradientUnits="userSpaceOnUse">
            <stop stop-color="var(--system_primery_gredient1, #660AFB)"/>
            <stop offset="1" stop-color="var(--system_primery_gredient2, #BF37FF)"/>
        </linearGradient>
    </defs>
</svg>
