<svg width="24" height="24" viewBox="0 0 24 24" fill="none" xmlns="http://www.w3.org/2000/svg">
<path d="M2.07456 20.0192C2.16292 20.8424 2.81604 21.4951 3.63907 21.5851C6.32867 21.8791 9.14586 22.2831 12.0478 22.2831C14.9497 22.2831 17.7669 21.8791 20.4565 21.5851C21.2795 21.4951 21.9326 20.8424 22.0209 20.0192C22.3086 17.3395 22.6893 14.5327 22.6893 11.6415C22.6893 8.75035 22.3086 5.94355 22.0209 3.26378C21.9326 2.44058 21.2795 1.78801 20.4565 1.69802C17.7669 1.40399 14.9497 1 12.0478 1C9.14586 1 6.32867 1.40397 3.63907 1.69802C2.81604 1.78801 2.16292 2.44058 2.07456 3.26378C1.78692 5.94355 1.40625 8.75035 1.40625 11.6415C1.40625 14.5327 1.78692 17.3395 2.07456 20.0192Z" fill="white" stroke="#1F2B40" stroke-width="1.71429"/>
<path d="M22.4196 6.90477C22.3431 6.13633 22.2578 5.37613 22.1734 4.62506C22.1222 4.16785 22.0711 3.71402 22.0227 3.26378C21.9344 2.44058 21.2813 1.78801 20.4583 1.69802C19.9555 1.64306 19.4482 1.58425 18.9368 1.52497C16.7125 1.26706 14.4091 1 12.0496 1C9.69015 1 7.3867 1.26706 5.16231 1.52497C4.65091 1.58425 4.14367 1.64306 3.6409 1.69802C2.81787 1.78801 2.16475 2.44058 2.07639 3.26378C2.02807 3.71402 1.9771 4.16785 1.92578 4.62505C1.84145 5.37613 1.7561 6.13633 1.67969 6.90477H22.4196Z" stroke="#1F2B40" stroke-width="1.71429"/>
<path d="M9 14.5861C9 15.1814 9.09285 15.9944 9.19791 16.7239C9.3367 17.6874 10.2859 18.3074 11.205 17.9869C12.7887 17.4342 14.26 16.6288 15.3422 15.4764C15.8145 14.9735 15.8145 14.1986 15.3422 13.6957C14.2601 12.5432 12.7888 11.7378 11.2051 11.1853C10.286 10.8646 9.33682 11.4847 9.198 12.4481C9.0929 13.1776 9 13.9907 9 14.5861Z" stroke="#1F2B40" stroke-width="1.71429" stroke-linecap="round" stroke-linejoin="round"/>
<path d="M9.28194 1.10791L7.69531 6.90462" stroke="#1F2B40" stroke-width="1.71429" stroke-linecap="round" stroke-linejoin="round"/>
<path d="M16.3274 1.23486L14.7812 6.90487" stroke="#1F2B40" stroke-width="1.71429" stroke-linecap="round" stroke-linejoin="round"/>
</svg>
